<svg aria-hidden="true" style="position:absolute;width:0;height:0" xmlns="http://www.w3.org/2000/svg" overflow="hidden"><defs><symbol id="icon-antenna" viewBox="0 0 30 32"><path d="M29.859 22.098l-8.443-8.505.937-4.615c.242.094.499.144.758.146h.032a2.16 2.16 0 1 0-2.029-1.42l-.005-.015-4.96.605L8.058.161a.53.53 0 0 0-.377-.16.533.533 0 0 0-.373.155L5.795 1.66a.535.535 0 0 0 0 .754l.814.826c-1.143 2.062-1.816 4.522-1.816 7.139 0 4.105 1.656 7.824 4.336 10.525l-.001-.001c.041.04.09.073.143.097l.003.001c-.034.18-.051.364-.052.547v6.187h-6.4a2.67 2.67 0 0 0-2.667 2.667v1.067c0 .295.239.533.533.533h24.533a.533.533 0 0 0 .533-.533v-1.067a2.67 2.67 0 0 0-2.667-2.667h-6.4v-2.742c.915.2 1.968.317 3.047.32h.002a14.784 14.784 0 0 0 7.117-1.822l-.077.039.818.823a.53.53 0 0 0 .377.16.533.533 0 0 0 .373-.155l1.512-1.504a.535.535 0 0 0 0-.754zM22.366 6.233a1.066 1.066 0 1 1 .752 1.822h-.003a1.067 1.067 0 0 1-.747-1.823h-.002zM21.11 9.738l-.598 2.946-1.175-1.182 1.774-1.763zm-.606-.902l-1.92 1.909-1.485-1.493 3.405-.415zM23.09 28.8a1.6 1.6 0 0 1 1.6 1.6v.533H1.223V30.4a1.6 1.6 0 0 1 1.6-1.6H23.09zm-7.467-2.133v1.067H10.29v-1.067h5.333zM10.29 25.6v-4.053c0-1.294 1.196-2.347 2.667-2.347s2.667 1.053 2.667 2.347V25.6h-5.333zm6.4-1.696v-2.357c0-1.882-1.675-3.413-3.733-3.413h-.058c-1.353 0-2.54.707-3.213 1.771l-.009.016a13.816 13.816 0 0 1-3.811-9.55c0-2.314.567-4.496 1.569-6.414l-.036.077 18.602 18.708c-1.823.947-3.979 1.502-6.266 1.502-1.079 0-2.129-.124-3.136-.358l.093.018zm11.289-.684L6.922 2.039l.755-.752 7.935 7.98c.004 0 .006.007.01.01l13.115 13.191-.757.752z"/></symbol><symbol id="icon-astronaut" viewBox="0 0 32 32"><path fill="var(--color1, #2196f3)" d="M31.974 4.524a.538.538 0 0 0-.427-.363h-.003l-1.91-.278-.855-1.731c-.179-.365-.777-.365-.956 0l-.855 1.731-1.91.278a.536.536 0 0 0-.296.91l1.383 1.348-.326 1.903a.536.536 0 0 0 .525.624.524.524 0 0 0 .252-.064l-.003.001 1.709-.899 1.709.899a.536.536 0 0 0 .774-.566v.003l-.326-1.903 1.383-1.348a.535.535 0 0 0 .134-.551l.001.004zm-2.463 1.327a.533.533 0 0 0-.153.475v-.003l.191 1.114-1-.526a.525.525 0 0 0-.501.001l.003-.001-1.001.526.191-1.114a.53.53 0 0 0-.153-.472l-.81-.789 1.119-.163a.537.537 0 0 0 .401-.289l.001-.003.5-1.013.5 1.013a.54.54 0 0 0 .399.292h.003l1.119.163-.809.789zm-3.377 14.671h-1.067v1.067h1.067v-1.067zm0 2.134h-1.067v1.067h1.067v-1.067zm1.066-1.067h-1.067v1.067H27.2v-1.067zm-2.133 0H24v1.067h1.067v-1.067zm-2.667 4.8h-1.067v1.067H22.4v-1.067zm0 2.133h-1.067v1.067H22.4v-1.067zm1.067-1.066H22.4v1.067h1.067v-1.067zm-2.134 0h-1.067v1.067h1.067v-1.067zM16 24.256h-1.067v1.067H16v-1.067zm0 2.133h-1.067v1.067H16v-1.067zm1.067-1.067H16v1.067h1.067v-1.067zm-2.134 0h-1.067v1.067h1.067v-1.067zm-9.066-19.2H4.8v1.067h1.067V6.122zm0 2.133H4.8v1.067h1.067V8.255z"/><path fill="var(--color1, #2196f3)" d="M6.933 7.189H5.866v1.067h1.067V7.189zm-2.133 0H3.733v1.067H4.8V7.189z"/><path fill="var(--color2, #212121)" d="M24.715 14.159a1.78 1.78 0 0 0-1.179-.704l-.009-.001a1.769 1.769 0 0 0-1.344.355l.004-.003-1.252.96-1.898 1.417-1.358-.541c2.421-1.086 4.114-3.508 4.114-6.32 0-3.823-3.123-6.933-6.961-6.933s-6.961 3.11-6.961 6.933v.001c0 1.398.418 2.698 1.136 3.782l-.016-.025-2.769-.024c-.009 0-.015.004-.023.005a.523.523 0 0 0-.159.032l.004-.001-.038.013c-.006.003-.013.003-.019.006l-3.234 1.597-1.893.911a.429.429 0 0 0-.064.036l.001-.001a1.78 1.78 0 0 0-.594 2.305l-.005-.01c.22.429.595.745 1.056.889a1.768 1.768 0 0 0 1.388-.133l-.009.005 1.388-.738 2.264-1.169 1.357-.008-6.783 6.75c-.316.315-.49.732-.49 1.178s.174.863.49 1.179c.325.323.752.485 1.179.485s.854-.162 1.18-.485l1.314-1.309 1.741-1.3.901.897-3.103 3.088c-.316.315-.49.732-.49 1.178s.174.863.49 1.179c.325.323.753.485 1.18.485s.855-.162 1.18-.485l3.483-3.469 1.01-1-.004-.004c.006-.006.015-.009.022-.015l5.166-5.658 3.471.494a.517.517 0 0 0 .265-.034l-.003.001c.018-.006.033-.015.05-.023.019-.01.039-.015.058-.027l3.213-2.133c.012-.008.018-.021.029-.029.013-.01.029-.014.041-.026l1.271-1.191c.662-.62.753-1.635.212-2.362zM2.13 17.77a.706.706 0 0 1-.563.05l.005.001a.719.719 0 0 1-.215-1.258l.002-.001 1.314-.632.449 1.313-.992.527zm3.498-1.828l-1.548.8-.439-1.283 2.027-1.001-.04 1.484zm15.099-6.62a5.765 5.765 0 0 1-.614 2.592l.015-.033-4.181-1.899a1.863 1.863 0 0 0-.782-1.384l-.006-.004 1.464-4.86c2.378.756 4.105 2.974 4.105 5.588zm-11.789 0c0-3.235 2.644-5.867 5.894-5.867.253 0 .5.021.745.052l-1.432 4.754c-.019-.001-.037-.006-.057-.006-1.033 0-1.873.837-1.873 1.867s.84 1.867 1.873 1.867c.694 0 1.294-.383 1.618-.945l3.862 1.755a5.894 5.894 0 0 1-4.737 2.39c-3.25 0-5.894-2.632-5.894-5.867zm5.956.8c0 .441-.362.8-.806.8s-.806-.359-.806-.8c0-.441.362-.8.806-.8s.806.359.806.8zM2.465 25.146a.606.606 0 0 1-.855.001.59.59 0 0 1 0-.844l.962-.959.851.848-.959.955zm3.214 3.734a.606.606 0 0 1-.855.001.59.59 0 0 1 0-.844l.963-.959.852.848-.96.955zm3.481-3.469l-.002.001-1.765 1.76-.852-.848 1.765-1.756c.04-.04.065-.088.09-.135.007-.014.02-.026.026-.04.017-.041.019-.085.026-.129.003-.025.014-.047.014-.073 0-.036-.013-.07-.02-.106-.006-.032-.006-.065-.019-.095a.56.56 0 0 0-.091-.138c-.01-.012-.014-.027-.025-.038h-.001l-.001-.002-1.607-1.6c-.017-.017-.039-.024-.058-.038a.563.563 0 0 0-.084-.057l-.003-.001a.444.444 0 0 0-.089-.032l-.004-.001a.502.502 0 0 0-.101-.02h-.023a.468.468 0 0 0-.076.006h.003a.608.608 0 0 0-.108.021l.004-.001a.502.502 0 0 0-.096.046l.002-.001c-.02.011-.042.015-.061.029l-1.773 1.324-.901-.897 2.399-2.386 4.361 4.289-.928.919zm6.819-7.017c-.015-.002-.03.004-.045.003h-.02a.552.552 0 0 0-.282.077l.003-.001a.481.481 0 0 0-.083.061c-.013.011-.028.017-.04.029l-4.698 5.146-4.328-4.257 2.833-2.818a.535.535 0 0 0-.378-.911H8.94v-.001l-2.219.013.028-1.607 3.104.027a6.926 6.926 0 0 0 4.978 2.101h.004c.437 0 .864-.045 1.279-.123.04.032.079.065.13.085l2.41.96.152.758.178.885-3.003-.427zm4.041.178l-.313-1.558 1.446-1.08.947 1.257-2.08 1.381zm3.754-2.831l-.838.785-.931-1.236.831-.637a.734.734 0 0 1 .547-.143h-.004a.72.72 0 0 1 .479.282l.001.002a.712.712 0 0 1-.085.947z"/><path fill="var(--color2, #212121)" d="M13.602 18.544l-2.143-2.133a.534.534 0 0 0-.754 0l-2.142 2.133a.537.537 0 0 0 0 .756l2.142 2.133a.533.533 0 0 0 .754-.001l2.143-2.133a.535.535 0 0 0 0-.756zm-2.519 1.759l-1.387-1.381 1.387-1.381 1.387 1.381-1.387 1.381zm6.081-15.232l-.258 1.036c.071.018 1.738.452 1.738 2.149h1.067c0-2.017-1.666-2.965-2.547-3.185zm2.547 4.251h-1.067v1.067h1.067V9.322z"/></symbol><symbol id="icon-clock" viewBox="0 0 31 32"><path d="M30.84 15.301C30.838 6.849 23.985-.002 15.532 0S.229 6.855.231 15.308c.001 6.788 4.422 12.543 10.541 14.545l.108.031a.669.669 0 0 0 .533-.066l-.003.002a.64.64 0 0 0 .282-.352l.001-.005 3.865-12.25a1.912 1.912 0 1 0-.851-3.63l.011-.005-5.106-5.107a.637.637 0 1 0-.902.902l5.103 5.109a1.873 1.873 0 0 0 .532 2.306l.004.003-3.683 11.673C3.388 25.783-.338 17.71 2.343 10.432S13.097-.572 20.375 2.109c7.278 2.681 11.004 10.754 8.324 18.032-1.345 3.581-4.003 6.406-7.374 7.937l-.088.036-.398-1.874a.639.639 0 0 0-1.049-.343l.001-.001-3.837 3.426a.638.638 0 0 0 .227 1.083l.005.001 4.899 1.563a.638.638 0 0 0 .818-.745l.001.004-.391-1.839c5.528-2.374 9.329-7.772 9.329-14.057v-.034.002zm-15.305-.637a.639.639 0 1 1 0 1.278.639.639 0 1 1 0-1.278zm2.1 14.864l2.184-1.948.603 2.84-2.787-.892z"/></symbol><symbol id="icon-facebook" viewBox="0 0 18 32"><path fill="var(--color3, #afb1b8)" d="M13.329 5.313h2.921V.225C15.746.156 14.013 0 11.994 0 7.782 0 4.897 2.649 4.897 7.519V12H.249v5.688h4.648V32h5.699V17.689h4.46l.708-5.688h-5.169V8.082c.001-1.644.444-2.769 2.735-2.769z"/></symbol><symbol id="icon-instagram" viewBox="0 0 32 32"><path fill="var(--color3, #afb1b8)" d="M31.969 9.408c-.075-1.7-.35-2.869-.744-3.882a7.845 7.845 0 0 0-1.849-2.837l-.001-.001A7.88 7.88 0 0 0 26.597.862l-.054-.018C25.524.45 24.361.175 22.661.1 20.948.019 20.404 0 16.06 0s-4.888.019-6.595.094c-1.7.075-2.869.35-3.882.744a7.845 7.845 0 0 0-2.837 1.849l-.001.001A7.89 7.89 0 0 0 .919 5.466l-.018.054C.507 6.539.232 7.702.157 9.402c-.081 1.713-.1 2.257-.1 6.601s.019 4.888.094 6.595c.075 1.7.35 2.869.744 3.882a7.941 7.941 0 0 0 1.849 2.837l.001.001a7.89 7.89 0 0 0 2.778 1.826l.054.018c1.019.394 2.182.669 3.882.744 1.706.075 2.25.094 6.595.094s4.888-.019 6.595-.094c1.7-.075 2.869-.35 3.882-.744a8.233 8.233 0 0 0 4.663-4.627l.019-.055c.394-1.019.669-2.182.744-3.882.075-1.707.094-2.251.094-6.595s-.006-4.888-.081-6.595zm-2.882 13.065c-.069 1.563-.331 2.407-.55 2.969a5.334 5.334 0 0 1-3.002 3.025l-.036.013c-.563.219-1.413.481-2.969.55-1.688.075-2.194.094-6.464.094s-4.782-.019-6.464-.094c-1.563-.069-2.407-.331-2.969-.55a4.947 4.947 0 0 1-1.837-1.193l-.001-.001a4.988 4.988 0 0 1-1.183-1.804l-.011-.034c-.219-.563-.481-1.413-.55-2.969-.075-1.688-.094-2.194-.094-6.464s.019-4.782.094-6.464c.069-1.563.331-2.407.55-2.969a4.885 4.885 0 0 1 1.198-1.836l.002-.002a4.988 4.988 0 0 1 1.804-1.183l.034-.011c.563-.219 1.413-.481 2.969-.55 1.688-.075 2.194-.094 6.464-.094 4.276 0 4.782.019 6.464.094 1.563.069 2.407.331 2.969.55a4.947 4.947 0 0 1 1.837 1.193l.001.001a4.988 4.988 0 0 1 1.183 1.804l.011.034c.219.563.481 1.413.55 2.969.075 1.688.094 2.194.094 6.464s-.019 4.77-.094 6.458z"/><path fill="var(--color3, #afb1b8)" d="M16.059 7.783c-4.538 0-8.22 3.682-8.22 8.22s3.682 8.22 8.22 8.22c4.539 0 8.22-3.682 8.22-8.22s-3.682-8.22-8.22-8.22zm0 13.552a5.334 5.334 0 0 1-.006-10.664h.005a5.334 5.334 0 0 1 .006 10.664h-.005zM26.524 7.458a1.919 1.919 0 1 1-3.838 0 1.919 1.919 0 1 1 3.838 0z"/></symbol><symbol id="icon-laptop" viewBox="0 0 41 32"><path d="M2.073 31.933h33.168a2.073 2.073 0 0 0 2.073-2.073v-2.764a2.073 2.073 0 0 0-2.073-2.073h-.691V7.791l3.925-3.718A2.086 2.086 0 0 0 40.886.745l.001.001a2.086 2.086 0 0 0-3.375 2.352l-.005-.013-2.957 2.803V4.294a2.073 2.073 0 0 0-2.073-2.073H4.837a2.073 2.073 0 0 0-2.073 2.073v20.73h-.691A2.073 2.073 0 0 0 0 27.097v2.764c0 1.145.928 2.073 2.073 2.073zM39.387 1.529a.691.691 0 0 1 0 1.382.691.691 0 0 1 0-1.382zM4.146 4.293v-.001a.69.69 0 0 1 .69-.69H32.478a.69.69 0 0 1 .69.69v2.903l-1.382 1.313V5.675v-.001a.69.69 0 0 0-.69-.69H6.219h-.001a.69.69 0 0 0-.69.69v17.277c0 .381.309.69.69.69H31.096a.69.69 0 0 0 .69-.69V10.409L33.168 9.1v15.923H4.146V4.293zm6.219 8.983h-.012a2.07 2.07 0 0 0-1.061 3.85l.009.005c.302.182.667.29 1.058.29.56 0 1.069-.222 1.442-.584l-.001.001 2.402 1.205a.686.686 0 0 0 .824-.158l.001-.001 5.106-5.744 5.019 3.761a.687.687 0 0 0 .889-.052l4.362-4.132v10.54H6.909V6.364h23.494v3.449l-4.889 4.63-5.061-3.794a.693.693 0 0 0-.931.092l-.001.001-5.176 5.824-1.935-.968c.014-.083.023-.167.026-.251a2.073 2.073 0 0 0-2.073-2.073zm.691 2.073a.691.691 0 0 1-1.382 0 .691.691 0 0 1 1.382 0zm4.146 11.056h6.91v.692a.69.69 0 0 1-.69.69h-5.529-.001a.69.69 0 0 1-.69-.69v-.692zm-13.82.691v-.001a.69.69 0 0 1 .69-.69H13.82v.691c0 1.145.928 2.073 2.073 2.073h5.528a2.073 2.073 0 0 0 2.073-2.073v-.691h11.748a.69.69 0 0 1 .69.69V29.861a.69.69 0 0 1-.69.69H2.073h-.001a.69.69 0 0 1-.69-.69V27.096z"/></symbol><symbol id="icon-linkedin" viewBox="0 0 32 32"><path fill="var(--color3, #afb1b8)" d="M31.992 32v-.001H32V20.263c0-5.741-1.236-10.164-7.948-10.164-3.227 0-5.392 1.771-6.276 3.449h-.093v-2.913h-6.364v21.364h6.627V21.42c0-2.785.528-5.479 3.977-5.479 3.399 0 3.449 3.179 3.449 5.657v10.401h6.62zM.528 10.636h6.635V32H.528V10.636zM3.843 0C1.722 0 0 1.721 0 3.843s1.721 3.879 3.843 3.879c2.121 0 3.843-1.757 3.843-3.879A3.846 3.846 0 0 0 3.843 0z"/></symbol><symbol id="icon-mail" viewBox="0 0 43 32"><path fill="var(--color1, #2196f3)" d="M38.667 0H4C1.794 0 0 1.794 0 4v24c0 2.206 1.794 4 4 4h34.667c2.206 0 4-1.794 4-4V4c0-2.206-1.794-4-4-4zm0 2.667c.181 0 .353.038.511.103L21.334 18.236 3.49 2.77c.151-.065.327-.103.511-.103h34.667zm0 26.666H4A1.335 1.335 0 0 1 2.667 28V5.587L20.46 21.008a1.331 1.331 0 0 0 1.75-.001l-.002.001L40.001 5.587V28c0 .736-.598 1.333-1.333 1.333z"/></symbol><symbol id="icon-partner-01" viewBox="0 0 25 32"><path fill="var(--color3, #afb1b8)" d="M10.447 1.806h.084c.156 0 .324.016.49.03.734.052 1.463.162 2.179.329V.403a12.34 12.34 0 0 0-2.208-.356L10.95.045c-.253-.02-.569-.036-.887-.044H9.778a18.342 18.342 0 0 0-4.643.611l.128-.029A18.25 18.25 0 0 0 .388 2.577l.085-.046v17.475a18.966 18.966 0 0 1 4.431-1.75l.135-.029a19.258 19.258 0 0 1 3.78-.586l.053-.002h.051c.216-.011.433-.017.655-.019v-1.79c-1.78.024-3.494.264-5.129.695l.147-.033c-.752.191-1.33.367-1.898.563l.167-.05-.623.211V3.591l.266-.128c1.89-.918 4.095-1.512 6.424-1.649l.047-.002.028-.001.029.001h-.001c.248-.013.497-.019.741-.019h.28c.129.003.258.006.388.014z"/><path fill="var(--color3, #afb1b8)" d="M14.837 3.651h-.03c-.91 0-1.801-.077-2.669-.224l.093.013c-.277-.047-.55-.103-.814-.164v17.275c.996.257 2.14.404 3.319.404h.112-.006a18.432 18.432 0 0 0 4.643-.61l-.128.029a18.285 18.285 0 0 0 4.877-1.995l-.085.047V1.263a19.031 19.031 0 0 1-4.428 1.751l-.136.03c-1.423.381-3.058.602-4.743.609h-.004zm6.908.299l.623-.21v13.63l-.266.128c-.903.443-1.963.834-3.066 1.118l-.118.026c-1.331.344-2.7.522-4.074.527-.411 0-.819-.017-1.214-.052l-.427-.038V5.062l.497.033c.361.023.735.034 1.141.034a21.134 21.134 0 0 0 5.32-.696l-.147.033a24.66 24.66 0 0 0 1.919-.574l-.188.056zM1.684 25.977a.91.91 0 0 0-.695-.28h.002-.013c-.139 0-.272.028-.394.078l.007-.003a.916.916 0 0 0-.51.512l-.002.006a.997.997 0 0 0-.072.377v.01-.001 2.335c-.006.165.026.328.092.479.055.12.135.226.233.313a.814.814 0 0 0 .315.165l.006.001c.114.032.231.048.349.049a.972.972 0 0 0 .89-.604l.002-.006a.94.94 0 0 0 .075-.37v-.263h-.61V28.999a.515.515 0 0 1-.038.196l.001-.004a.367.367 0 0 1-.089.131.375.375 0 0 1-.125.066l-.003.001a.429.429 0 0 1-.128.022.314.314 0 0 1-.286-.124l-.001-.001a.545.545 0 0 1-.082-.288l.001-.027v.001-2.177-.024a.74.74 0 0 1 .077-.329l-.002.004a.31.31 0 0 1 .261-.143l.039.002H.982h.009c.107 0 .202.051.263.13l.001.001c.068.09.104.2.101.313v.202h.604v-.238-.008c0-.281-.106-.537-.28-.73l.001.001zm3.626-.027a1.048 1.048 0 0 0-1.381.001l.001-.001a.984.984 0 0 0-.235.321l-.002.006a1.089 1.089 0 0 0-.089.434v.019-.001 2.268c0 .156.033.303.092.437l-.003-.007c.055.12.136.227.237.313.09.084.197.151.316.195l.006.002a1.012 1.012 0 0 0 .735-.002l-.007.002c.121-.044.233-.111.33-.197a.958.958 0 0 0 .228-.307l.002-.006c.056-.127.089-.275.089-.43v-.03.001-2.239-.022c0-.155-.033-.303-.092-.437l.003.007a1.027 1.027 0 0 0-.23-.327zm-.285 3.019l.001.034a.406.406 0 0 1-.122.29.443.443 0 0 1-.575 0l.001.001a.394.394 0 0 1-.123-.287l.002-.039v.002-2.239l-.001-.034c0-.114.047-.216.122-.29a.443.443 0 0 1 .575 0l-.001-.001a.394.394 0 0 1 .123.287l-.002.039v-.002 2.239zm5.047 1V25.73h-.587l-.771 2.244h-.011l-.777-2.244h-.581v4.239h.606V27.39h.011l.593 1.823h.302l.598-1.823h.011v2.579h.606zm3.441-3.942a.842.842 0 0 0-.336-.23l-.006-.002a1.333 1.333 0 0 0-.419-.066h-.92v4.239h.604v-1.656h.311c.188.009.376-.031.545-.116a.89.89 0 0 0 .33-.32l.002-.004a1 1 0 0 0 .138-.363l.001-.006c.024-.16.035-.321.033-.482l.001-.07c0-.19-.022-.375-.063-.552l.003.016a.906.906 0 0 0-.223-.39zm-.312 1.292a.553.553 0 0 1-.057.224l.001-.003a.35.35 0 0 1-.154.148l-.002.001a.61.61 0 0 1-.253.054l-.034-.001h.002-.276v-1.441h.311l.028-.001c.089 0 .173.02.248.055l-.004-.002c.062.037.111.09.141.155l.001.002c.032.069.051.15.053.235v.283c0 .099.006.2 0 .291H13.2zm3.173-1.589h-.495l-.934 4.239h.604l.177-.911h.824l.177.911h.604l-.957-4.239zm-.557 2.751l.297-1.537h.011l.296 1.537h-.604zm4.46-.197h-.011l-.912-2.554h-.581v4.239h.604V27.42h.012l.923 2.549h.568V25.73h-.604v2.554zm3.691-2.554l-.486 1.685h-.012l-.486-1.685h-.64l.83 2.447v1.792h.604v-1.792l.83-2.447h-.64zM0 31.166h.291v.817h.198v-.817h.29v-.167H.001v.167zm2.447-.168l-.381.984h.21l.081-.224h.392l.084.224h.215l-.391-.984h-.21zm-.031.595l.134-.365.134.365h-.268zm2.45.027h.227v.127a.38.38 0 0 1-.234.083l-.017.001a.243.243 0 0 1-.192-.093v-.001a.408.408 0 0 1-.074-.235l.001-.023v.001c0-.219.095-.329.283-.329l.022-.001c.097 0 .178.067.2.157v.001l.195-.038c-.042-.192-.181-.289-.417-.289h-.013a.49.49 0 0 0-.332.128.492.492 0 0 0-.141.381v-.002l-.001.025a.53.53 0 0 0 .127.345l-.001-.001c.087.09.208.145.343.145l.033-.001h-.001.016c.155 0 .296-.06.401-.158v-.388h-.427v.166zm2.471-.622h-.199v.984h.69v-.167h-.49v-.817zm2.089 0h-.199v.984h.199v-.984zm2.043.658l-.403-.657h-.193v.984h.185v-.643l.395.643h.198v-.984h-.182v.657zm1.846-.107h.49v-.167h-.49v-.216h.528v-.167h-.727v.984h.747v-.167h-.548v-.266zm4.477-.162h-.388v-.388h-.198v.984h.198v-.43h.388v.43h.198v-.984h-.198v.388zm1.857.162h.492v-.167h-.492v-.216h.529v-.167h-.727v.984h.746v-.167h-.548v-.266zm2.519 0c.171-.027.258-.117.258-.274a.23.23 0 0 0-.095-.219h-.001a.55.55 0 0 0-.249-.059l-.041.001h.002-.417v.984h.198v-.412h.039l.017-.001c.038 0 .075.008.108.023l-.002-.001a.204.204 0 0 1 .069.071l.001.001.215.313h.237l-.12-.192a.684.684 0 0 0-.216-.234l-.002-.002zm-.199-.136h-.146v-.247h.156a.538.538 0 0 1 .205.024l-.004-.001a.135.135 0 0 1 .033.046.135.135 0 0 1-.005.112v-.001a.128.128 0 0 1-.037.043.55.55 0 0 1-.162.024c-.014 0-.028 0-.041-.002h.002zm2.098.136h.49v-.167h-.49v-.216h.529v-.167h-.729v.984h.747v-.167h-.548v-.266z"/></symbol><symbol id="icon-partner-02" viewBox="0 0 31 32"><path fill="var(--color3, #afb1b8)" d="M4.722 31.103c.023.001.044.01.059.025l.153.161c-.119.13-.266.234-.431.305a1.51 1.51 0 0 1-.569.11l-.044-.001h.002-.03c-.196 0-.383-.038-.554-.106l.01.004a1.257 1.257 0 0 1-.709-.724l-.003-.009a1.592 1.592 0 0 1-.098-.555v-.017.001c-.003-.195.033-.39.105-.573.067-.166.168-.317.297-.445.131-.126.287-.224.459-.29.189-.07.389-.104.591-.102.188-.004.375.027.549.093.152.063.291.15.412.257l-.128.171a.122.122 0 0 1-.033.031.085.085 0 0 1-.045.013h-.007a.136.136 0 0 1-.057-.018h.001l-.069-.046-.096-.058a.943.943 0 0 0-.296-.102l-.006-.001a1.153 1.153 0 0 0-.211-.018h-.018.001-.017c-.147 0-.287.028-.416.08l.008-.003a.947.947 0 0 0-.333.215 1.01 1.01 0 0 0-.214.336l-.002.007c-.054.145-.08.298-.078.452-.002.156.024.312.078.46.047.126.119.242.212.341a.877.877 0 0 0 .312.21l.006.002c.125.049.259.074.394.073.078.001.156-.004.234-.015a.873.873 0 0 0 .358-.124l-.004.002c.054-.034.104-.072.151-.113a.116.116 0 0 1 .073-.029zm4.422-.807c.002.194-.033.386-.103.567-.062.165-.161.315-.288.44s-.282.224-.452.289a1.695 1.695 0 0 1-1.176-.004l.012.004a1.29 1.29 0 0 1-.738-.726l-.003-.009a1.614 1.614 0 0 1 .003-1.147l-.004.011c.065-.166.164-.317.291-.447.128-.121.281-.216.45-.279.374-.139.79-.139 1.164 0 .17.066.324.165.452.29.126.127.224.276.289.44.071.183.106.376.103.571zm-.402 0v-.024a1.32 1.32 0 0 0-.076-.442l.003.009a.904.904 0 0 0-.522-.554l-.006-.002c-.126-.048-.271-.075-.423-.075s-.297.027-.431.078l.008-.003a.905.905 0 0 0-.529.55l-.002.006a1.464 1.464 0 0 0 .003.922l-.003-.01a.893.893 0 0 0 .525.552l.006.002c.273.097.573.097.846 0a.887.887 0 0 0 .526-.548l.002-.006c.051-.147.076-.301.073-.456zm3.419.478l.04.102c.023-.057.038-.09.053-.124l-.009.022a.915.915 0 0 1 .052-.104l-.002.004.978-1.694c.019-.029.036-.047.056-.053a.22.22 0 0 1 .081-.009h-.001.289v2.755h-.343v-2.112a.68.68 0 0 1-.002-.047l.002-.05v.002l-.984 1.718c-.012.026-.033.047-.058.063s-.054.023-.084.023H12.17a.155.155 0 0 1-.138-.085v-.001l-1.013-1.729v2.213h-.331v-2.75h.303c.024 0 .047.003.068.01h-.002c.024.011.043.03.054.053l.999 1.696c.02.031.036.064.05.098zm3.681-.136v1.032h-.383v-2.752h.886c.158 0 .311.022.457.063l-.012-.003c.13.035.242.094.339.172l-.002-.001a.694.694 0 0 1 .189.265l.002.005c.041.1.065.216.065.337v.016-.001.014a.842.842 0 0 1-.073.344l.002-.005a.746.746 0 0 1-.206.274l-.001.001a.93.93 0 0 1-.332.18l-.007.002c-.13.041-.279.064-.434.064h-.028l-.462-.007zm0-.296H16.316a.98.98 0 0 0 .293-.044l-.007.002a.61.61 0 0 0 .215-.12l-.001.001a.49.49 0 0 0 .129-.179l.001-.003a.574.574 0 0 0 .046-.226v-.006l.001-.024a.517.517 0 0 0-.172-.387.76.76 0 0 0-.518-.148h.003-.463v1.134zm5.145 1.331h-.307a.134.134 0 0 1-.079-.026.17.17 0 0 1-.05-.063v-.001l-.26-.666h-1.307l-.27.666a.147.147 0 0 1-.048.062.13.13 0 0 1-.08.027h-.308l1.148-2.756h.398l1.164 2.756zm-1.895-1.023h1.08l-.456-1.122a1.685 1.685 0 0 1-.083-.246l-.003-.013-.044.144c-.013.044-.029.084-.042.117l-.452 1.12zm3.549-1.719a.159.159 0 0 1 .057.049l1.675 2.077v-2.139h.343v2.756h-.196a.17.17 0 0 1-.074-.017h.001a.2.2 0 0 1-.061-.051l-1.673-2.075.002.047-.002.05v-.002 2.048h-.343v-2.756H22.578c.023 0 .045.005.065.014h-.001zm4.896 1.646v1.094h-.383v-1.094l-1.059-1.66H26.446c.028 0 .054.009.075.024.02.018.038.038.051.061l.001.001.662 1.071a1.2 1.2 0 0 1 .114.236l.003.009.05-.119c.019-.043.04-.085.065-.126l.653-1.078a.279.279 0 0 1 .05-.058.115.115 0 0 1 .075-.027h.354l-1.06 1.667zm-15.566-6.284c.167.02.335.036.505.051 2.583-1.101 4.768-2.902 6.282-5.18s2.29-4.929 2.231-7.624l-2.846-2.712c.579 2.869.308 5.836-.782 8.567s-2.956 5.12-5.389 6.898z"/><path fill="var(--color3, #afb1b8)" d="M10.955 24.167l.077.015c2.6-1.772 4.583-4.247 5.691-7.104s1.292-5.965.526-8.922l-4.054-3.862c1.64 3.175 2.3 6.728 1.903 10.246s-1.833 6.857-4.143 9.628zm13.749-9.442c-.689 2.961-2.362 5.632-4.77 7.616a15.064 15.064 0 0 1-2.191 1.511l-.075.039c1.961-.549 3.764-1.52 5.269-2.838s2.672-2.947 3.412-4.763l-1.644-1.565z"/><path fill="var(--color3, #afb1b8)" d="M24.059 14.289l-2.341-2.23c-.045 2.543-.803 5.028-2.197 7.197s-3.372 3.943-5.729 5.137h.011c.554 0 1.1-.032 1.637-.095l-.065.006c2.203-.857 4.148-2.219 5.664-3.967s2.553-3.825 3.021-6.047zM11.294 2.664L8.501 0C6.004.919 3.857 2.535 2.34 4.636S.008 9.225 0 11.775c.009 2.818 1.005 5.552 2.829 7.77s4.372 3.793 7.242 4.476c2.561-2.973 4.061-6.647 4.281-10.488s-.851-7.648-3.058-10.869zm19.218 11.214c-.01-3.343-1.409-6.546-3.89-8.91s-5.843-3.696-9.352-3.706h-.023c-1.694 0-3.316.308-4.812.872l.094-.031 17.099 16.291c.585-1.44.885-2.971.884-4.515z"/></symbol><symbol id="icon-partner-03" viewBox="0 0 60 32"><path fill="var(--color1, #2196f3)" d="M9.229 9.548h-.002c-1.684 0-3.048 1.33-3.048 2.971v.002c0 1.641 1.365 2.971 3.048 2.971h.002c1.684 0 3.048-1.33 3.048-2.971v-.002c0-1.641-1.365-2.971-3.048-2.971zm22.501-.949c-.005-2.279-.936-4.463-2.589-6.074S25.247.006 22.908.001c-2.339.004-4.581.911-6.235 2.523S14.087 6.32 14.083 8.6v12.566S31.728 19.251 31.73 8.602V8.6zM0 25.289c.004 1.586.652 3.105 1.803 4.226s2.709 1.753 4.336 1.758c1.627-.005 3.185-.636 4.336-1.757s1.799-2.64 1.803-4.225v-8.744S0 17.881 0 25.289zm6.139 1.567c-.318 0-.629-.092-.893-.264s-.47-.417-.592-.703-.154-.601-.091-.905c.062-.304.215-.583.44-.802s.511-.368.823-.429c.312-.06.635-.029.929.089s.545.319.721.577a1.546 1.546 0 0 1 .146 1.481l.004-.01a1.59 1.59 0 0 1-.859.847l-.011.004c-.195.079-.405.12-.617.12v-.006zm12.532-.972h-1.256v1.297h-.654v-3.174h2.067v.53h-1.413v.82h1.256v.528zm3.144-.218c0 .312-.055.587-.166.822s-.269.417-.475.545c-.205.128-.44.192-.706.192-.263 0-.498-.063-.704-.19s-.366-.307-.48-.541a1.836 1.836 0 0 1-.172-.783v-.029.001-.157c0-.312.056-.587.168-.824a1.27 1.27 0 0 1 .472-.544l.005-.003c.206-.128.442-.192.706-.192s.499.064.704.192c.206.126.366.309.477.547.113.237.17.511.17.822v.142zm-.663-.144c0-.333-.06-.586-.179-.759s-.289-.259-.51-.259h-.024a.581.581 0 0 0-.482.255l-.001.002c-.119.17-.18.42-.181.75v.155c0 .324.06.576.179.754s.291.268.515.268c.22 0 .388-.086.506-.257.118-.173.177-.424.179-.754v-.155zm2.784.826l.001-.019a.33.33 0 0 0-.131-.264l-.001-.001c-.087-.067-.244-.137-.471-.209a3.328 3.328 0 0 1-.558-.227l.019.009c-.36-.195-.541-.457-.541-.787 0-.172.048-.324.144-.458a.955.955 0 0 1 .41-.314l.006-.002c.182-.076.385-.113.61-.113.227 0 .429.041.606.124a.953.953 0 0 1 .41.344l.002.003c.099.15.148.32.148.51h-.654l.001-.024a.428.428 0 0 0-.137-.314c-.092-.081-.22-.122-.386-.122l-.036-.001a.606.606 0 0 0-.339.104l.002-.001a.316.316 0 0 0-.133.258v.008c0 .103.052.19.155.259.105.07.258.135.46.196.372.112.643.251.813.416s.255.372.255.619l.001.03a.762.762 0 0 1-.311.616l-.002.001c-.208.156-.488.233-.839.233-.244 0-.467-.044-.667-.133a1.074 1.074 0 0 1-.458-.365l-.002-.003a.934.934 0 0 1-.157-.522v-.02.001h.656c0 .35.209.525.628.525a.603.603 0 0 0 .367-.096l-.002.001a.312.312 0 0 0 .131-.255v-.012.001zm3.491-1.812h-.972v2.645h-.654v-2.645h-.959v-.53h2.586v.53zm2.285 1.269h-1.256v.85h1.474v.525h-2.128v-3.174h2.124v.53h-1.469v.757h1.256v.512zm1.777.214h-.521v1.162h-.654v-3.174h1.18c.375 0 .664.084.868.251s.305.403.305.709l.001.036a.964.964 0 0 1-.145.511l.002-.004a.958.958 0 0 1-.419.342l-.006.002.687 1.297v.03h-.702l-.595-1.162zm-.522-.53h.528c.164 0 .291-.041.382-.124.09-.084.135-.2.135-.347l.001-.026a.472.472 0 0 0-.13-.327c-.084-.086-.214-.129-.39-.129h-.525v.953zm3.964.574v1.118h-.654v-3.174h1.238c.238 0 .448.044.628.131.176.082.319.21.417.369l.002.004c.097.16.146.342.146.547 0 .311-.107.557-.321.737-.212.179-.507.268-.883.268h-.573zm0-.53h.584c.173 0 .305-.041.395-.122.092-.081.137-.198.137-.349 0-.156-.046-.281-.137-.377s-.218-.145-.379-.148h-.6v.996zm4.138.272h-1.256v.85h1.474v.525h-2.128v-3.174h2.124v.53h-1.469v.757h1.256v.512zm3.035-1.269h-.972v2.645h-.654v-2.645h-.959v-.53h2.586v.53zm2.285 1.269h-1.256v.85h1.474v.525h-2.128v-3.174h2.124v.53h-1.469v.757h1.256v.512zm1.777.214h-.521v1.162h-.654v-3.174h1.179c.375 0 .664.084.868.251s.305.403.305.709l.001.036a.964.964 0 0 1-.145.511l.002-.004a.958.958 0 0 1-.419.342l-.006.002.687 1.297v.03h-.702l-.595-1.162zm-.521-.53h.528c.164 0 .291-.041.382-.124.09-.084.135-.2.135-.347l.001-.026a.472.472 0 0 0-.13-.327c-.084-.086-.214-.129-.39-.129h-.525v.953zm3.844.859l.001-.019a.33.33 0 0 0-.131-.264l-.001-.001c-.087-.067-.244-.137-.471-.209a3.351 3.351 0 0 1-.557-.227l.019.009c-.36-.195-.541-.457-.541-.787 0-.172.048-.324.144-.458a.955.955 0 0 1 .41-.314l.006-.002c.182-.076.385-.113.61-.113.227 0 .429.041.606.124a.953.953 0 0 1 .41.344l.002.003c.099.15.148.32.148.51h-.654l.001-.024a.428.428 0 0 0-.137-.314c-.092-.081-.22-.122-.386-.122l-.036-.001a.606.606 0 0 0-.339.104l.002-.001a.316.316 0 0 0-.133.258v.008c0 .103.052.19.155.259.105.07.258.135.46.196.372.112.643.251.813.416s.255.372.255.619l.001.03a.762.762 0 0 1-.311.616l-.002.001c-.208.156-.488.233-.839.233-.244 0-.467-.044-.667-.133a1.08 1.08 0 0 1-.458-.365l-.002-.003a.934.934 0 0 1-.157-.522v-.02.001h.656c0 .35.209.525.628.525a.605.605 0 0 0 .367-.096l-.002.001a.312.312 0 0 0 .131-.255v-.012.001z"/></symbol><symbol id="icon-partner-04" viewBox="0 0 40 32"><path fill="var(--color3, #afb1b8)" d="M3.055 26.742c.156.194.24.438.236.688l.001.053c0 .324-.141.615-.365.815l-.001.001a1.565 1.565 0 0 1-1.066.317h.005H0v-4.361h1.827c.361-.024.718.078 1.012.29a.996.996 0 0 1 .353.819v-.003c.011.241-.065.477-.212.667a1 1 0 0 1-.549.34l-.007.001c.247.045.471.177.63.373zm-2.187-.658h.781a.733.733 0 0 0 .498-.146l-.002.001a.514.514 0 0 0 .169-.381l-.002-.047v.002a.527.527 0 0 0-.164-.426.748.748 0 0 0-.513-.147h.003H.87v1.144zm1.354 1.672a.54.54 0 0 0 .186-.408l-.001-.037v.002l.001-.029a.56.56 0 0 0-.188-.419h-.001a.794.794 0 0 0-.532-.158h.002H.87v1.199h.83a.817.817 0 0 0 .526-.153l-.002.002zm4.568.861l-1.016-1.704h-.382v1.704h-.874v-4.361h1.655c.417-.029.83.104 1.152.371a1.391 1.391 0 0 1 .12 1.807l.003-.004a1.344 1.344 0 0 1-.781.442l-.008.001 1.082 1.743H6.79zm-1.398-2.299h.715c.497 0 .745-.22.745-.66l.001-.04a.64.64 0 0 0-.184-.45.766.766 0 0 0-.565-.177h.003-.724l.008 1.327zm6.176 1.421H9.826l-.308.878h-.917l1.6-4.312h.991l1.593 4.312h-.917l-.301-.878zm-.233-.66l-.637-1.841-.637 1.841h1.273zm6.215 1.538h-.868l-1.946-2.965v2.965h-.866v-4.361h.866l1.946 2.983v-2.983h.868v4.361zm4.952-1.044c-.182.33-.45.593-.775.764l-.01.005a2.51 2.51 0 0 1-1.153.276l-.071-.001h.003-1.545v-4.361h1.545c.422-.011.841.081 1.22.268.332.168.606.433.785.761.172.333.272.727.272 1.144s-.101.811-.279 1.158l.007-.014zm-.993-.104a1.6 1.6 0 0 0-.001-2.084l.002.002a1.5 1.5 0 0 0-1.09-.371h.004-.603v2.823h.603a1.498 1.498 0 0 0 1.088-.372l-.002.001zM12.111 0s11.201 4.246 10.963 10.39v10.392S11.881 16.534 12.115 10.39L12.111 0zm20.943 18.349a15.137 15.137 0 0 1 7.05-2.627l.067-.006v-3.253c-2.995 1.181-5.437 3.226-7.082 5.826l-.035.06z"/><path fill="var(--color3, #afb1b8)" d="M31.783 19.329c1.749-3.487 4.693-6.159 8.283-7.513l.105-.035V2.407S24.219 8.455 24.557 17.204v14.795s.711-.27 1.829-.778c0-.473 0-.95.051-1.43a15.383 15.383 0 0 1 5.326-10.447l.021-.017z"/><path fill="var(--color3, #afb1b8)" d="M30.266 24.825c.093-1.118.291-2.149.586-3.138l-.028.109a14.242 14.242 0 0 0-3.377 8.921v.016c.906-.437 1.96-.982 3.068-1.623-.191-.908-.3-1.952-.3-3.021 0-.445.019-.885.056-1.32l-.004.057zm.634.053a14.8 14.8 0 0 0 .212 3.971l-.015-.092c4.358-2.618 9.255-6.664 9.067-11.553v-.426a14.272 14.272 0 0 0-8.297 3.894l.005-.004a14.26 14.26 0 0 0-.969 4.158l-.003.052z"/></symbol><symbol id="icon-partner-05" viewBox="0 0 62 32"><path fill="var(--color3, #afb1b8)" d="M31.124 14.854a2.249 2.249 0 0 1-.397-1.437v.007-2.075c0-.636.132-1.119.395-1.45s.715-.495 1.356-.494c.602 0 1.029.141 1.282.422.276.359.41.798.379 1.241v.488h-1.077v-.494l.001-.064c0-.148-.012-.293-.034-.435l.002.016a.483.483 0 0 0-.154-.287.584.584 0 0 0-.347-.114l-.045.002h.002a.593.593 0 0 0-.411.119l.002-.001a.56.56 0 0 0-.177.313l-.001.004c-.027.14-.042.302-.042.467v.048-.002 2.518c-.017.243.031.486.138.707.054.075.128.134.215.171s.183.051.278.04a.544.544 0 0 0 .382-.115l-.001.001a.524.524 0 0 0 .161-.303v-.003c.025-.167.036-.336.033-.505v-.511h1.077v.466c.03.462-.101.92-.372 1.304-.247.308-.669.462-1.289.462s-1.088-.165-1.353-.507zm4.483.022c-.272-.323-.408-.794-.408-1.416v-2.182c0-.616.136-1.083.408-1.399s.727-.474 1.364-.473c.633 0 1.086.158 1.358.473.272.317.41.783.41 1.399v2.182c0 .616-.138 1.089-.415 1.414s-.727.488-1.353.488-1.09-.165-1.364-.485zm1.867-.524c.097-.202.142-.424.129-.646v-2.672l.002-.074c0-.204-.048-.396-.132-.567l.003.007c-.055-.076-.131-.137-.22-.174s-.187-.05-.284-.037c-.097-.013-.195 0-.285.037s-.166.097-.221.174a1.235 1.235 0 0 0-.131.559l.002.078v-.004 2.685c-.014.222.031.444.129.646a.692.692 0 0 0 .504.216c.1 0 .195-.021.282-.058l-.005.002a.686.686 0 0 0 .227-.16v-.013zm2.561-4.884h1.159l.872 4.027.892-4.027h1.128l.114 5.812h-.834l-.089-4.04-.861 4.04h-.669l-.892-4.054-.082 4.054h-.843l.105-5.812zm5.465 0h1.806c1.04 0 1.561.55 1.561 1.65 0 1.054-.548 1.58-1.643 1.579h-.615v2.583h-1.115l.007-5.812zm1.542 2.484c.11.013.222.004.328-.028s.203-.085.285-.156c.128-.196.184-.427.16-.656l.001-.066c0-.164-.02-.323-.057-.476l.003.014c-.016-.058-.044-.112-.082-.159s-.086-.087-.141-.117a1.05 1.05 0 0 0-.5-.093h.003-.432v1.737h.432zm3.432-2.484h1.197l1.228 5.812H51.86l-.243-1.34h-1.068l-.25 1.34h-1.055l1.228-5.812zm1.023 3.799l-.417-2.44-.417 2.44h.834zm2.395-3.799h.78l1.494 3.316V9.468h.925v5.812h-.742l-1.503-3.461v3.461h-.957l.002-5.812zm5.366 3.596l-1.242-3.588h1.046l.758 2.305.711-2.305h1.023l-1.226 3.588v2.216h-1.07v-2.216zm-26.413 4.758v.304h-.91v2.362h-.381v-2.362h-.914v-.304h2.205zm2.852 2.666h-.302a.123.123 0 0 1-.075-.025.143.143 0 0 1-.049-.06v-.001l-.263-.633h-1.262l-.263.633a.181.181 0 0 1-.04.072.118.118 0 0 1-.074.025h-.303l1.115-2.666h.388l1.128 2.655zm-1.847-.99h1.052l-.446-1.085a1.896 1.896 0 0 1-.079-.235l-.004-.016-.042.141-.04.112-.441 1.083zm3.768.728a1.094 1.094 0 0 0 .395-.034l-.008.002c.055-.013.108-.029.16-.049.049-.019.098-.042.149-.065v-.599h-.446a.07.07 0 0 1-.032-.005.082.082 0 0 1-.045-.039.05.05 0 0 1-.005-.022v-.21h.865v1.022a1.524 1.524 0 0 1-.459.215l-.011.003a1.765 1.765 0 0 1-.27.054l-.009.001c-.097.011-.21.017-.325.017h-.015a1.54 1.54 0 0 1-.558-.103l.011.004a1.34 1.34 0 0 1-.447-.28l.001.001a1.309 1.309 0 0 1-.285-.414l-.003-.008a1.441 1.441 0 0 1-.103-.539v-.015.001c-.002-.19.032-.379.1-.557.064-.158.162-.302.288-.422.127-.12.279-.214.446-.277.191-.068.394-.102.597-.099.104 0 .207.008.31.023.183.03.347.091.495.178l-.007-.004c.068.042.133.088.194.139l-.107.165a.097.097 0 0 1-.086.051h-.001a.14.14 0 0 1-.07-.021h.001a1.171 1.171 0 0 1-.115-.067l.006.004a.894.894 0 0 0-.142-.07l-.007-.002a1.21 1.21 0 0 0-.197-.058l-.008-.001a1.503 1.503 0 0 0-.268-.023h-.015.001-.017c-.148 0-.29.027-.421.077l.008-.003a.94.94 0 0 0-.328.211.94.94 0 0 0-.205.325l-.002.006c-.1.289-.1.6 0 .889a.97.97 0 0 0 .541.545l.007.002c.142.046.292.064.441.053zm3.554-.042h1.217v.304h-1.59v-2.666h.381l-.009 2.362zm2.484.304h-.381v-2.666h.381v2.666zm1.418-2.654a.183.183 0 0 1 .058.049l1.63 2.009a.68.68 0 0 1-.002-.047l.002-.05v.002-1.987h.332v2.676H46.89a.173.173 0 0 1-.072-.016h.001a.185.185 0 0 1-.06-.051l-1.628-2.007v2.073h-.319v-2.666h.198c.022 0 .043.004.062.013zm4.827-.012v.293H48.55v.88h1.095v.283H48.55v.91h1.351v.293h-1.743v-2.659h1.743zM9.95 1.359L26.879 5.91v15.946L9.95 17.308V1.36zM8.864 0v18.082l19.098 5.135V5.137L8.864 0z"/><path fill="var(--color3, #afb1b8)" d="M19.1 31.611L0 26.472V8.392l19.1 5.137v18.082z"/><path fill="var(--color3, #afb1b8)" d="M9.181 1.155l16.708 4.493-7.105 6.729-16.71-4.496 7.108-6.726zM8.864 0L0 8.392l19.1 5.137 8.862-8.392L8.864 0zm11.311 30.593l7.788-7.374-7.788-2.096v9.47z"/></symbol><symbol id="icon-smartphone" viewBox="0 0 20 32"><path  d="M17 0H3C1.346 0 0 1.346 0 3v26c0 1.654 1.346 3 3 3h14c1.654 0 3-1.346 3-3V3c0-1.654-1.346-3-3-3zM3 2h14a1 1 0 0 1 1 1v21H2V3a1 1 0 0 1 1-1zm14 28H3a1 1 0 0 1-1-1v-3h16v3a1 1 0 0 1-1 1z"/></symbol><symbol id="icon-twitter" viewBox="0 0 36 32"><path fill="var(--color3, #afb1b8)" d="M35.556 4.976c-1.322.58-2.731.964-4.2 1.151a7.279 7.279 0 0 0 3.192-3.978l.014-.051a14.286 14.286 0 0 1-4.529 1.748l-.093.016a7.286 7.286 0 0 0-5.324-2.307c-4.035 0-7.284 3.276-7.284 7.291 0 .578.049 1.133.169 1.662-6.06-.296-11.422-3.2-15.024-7.624a7.25 7.25 0 0 0-.998 3.683v.001a7.295 7.295 0 0 0 3.212 6.042l.026.016a7.156 7.156 0 0 1-3.329-.917l.036.019v.08c0 3.542 2.527 6.484 5.84 7.162-.593.162-1.24.24-1.911.24-.467 0-.938-.026-1.38-.124.944 2.887 3.624 5.009 6.811 5.078a14.556 14.556 0 0 1-9.023 3.109h-.016.001-.1c-.58 0-1.151-.036-1.711-.107l.067.007c3.229 2.082 7.056 3.271 11.182 3.271 13.413 0 20.747-11.111 20.747-20.742 0-.322-.011-.633-.027-.942 1.447-1.027 2.662-2.309 3.653-3.784z"/></symbol></defs></svg>