<svg aria-hidden="true" style="position: absolute; width: 0; height: 0; overflow: hidden;" version="1.1" xmlns="http://www.w3.org/2000/svg" xmlns:xlink="http://www.w3.org/1999/xlink">
<defs>
<symbol id="icon-antenna" viewBox="0 0 30 32">
<path d="M29.859 22.098l-8.443-8.505 0.937-4.615c0.242 0.094 0.499 0.144 0.758 0.146h0.006c0.008 0 0.017 0 0.026 0 1.192 0 2.159-0.967 2.159-2.159s-0.967-2.159-2.159-2.159c-1.192 0-2.159 0.967-2.159 2.159 0 0.26 0.046 0.508 0.13 0.739l-0.005-0.015-4.96 0.605-8.091-8.133c-0.096-0.098-0.229-0.159-0.377-0.16h-0c-0.146 0.001-0.277 0.060-0.373 0.155l0-0-1.513 1.504c-0.096 0.097-0.156 0.23-0.156 0.377s0.060 0.28 0.156 0.377v0l0.814 0.826c-1.143 2.062-1.816 4.522-1.816 7.139 0 4.105 1.656 7.824 4.336 10.525l-0.001-0.001c0.041 0.040 0.090 0.073 0.143 0.097l0.003 0.001c-0.034 0.18-0.051 0.364-0.052 0.547v6.187h-6.4c-1.472 0.002-2.665 1.195-2.667 2.667v1.067c0 0.295 0.239 0.533 0.533 0.533h24.533c0.294 0 0.533-0.239 0.533-0.533v0-1.067c-0.002-1.472-1.195-2.665-2.667-2.667h-6.4v-2.742c0.915 0.2 1.968 0.317 3.047 0.32h0.002c2.58-0.003 5.005-0.663 7.117-1.822l-0.077 0.039 0.818 0.823c0.096 0.098 0.229 0.159 0.377 0.16h0c0.146-0.001 0.277-0.060 0.373-0.155l1.512-1.504c0.096-0.097 0.156-0.23 0.156-0.377s-0.060-0.28-0.156-0.377v0zM22.366 6.233c0.193-0.192 0.458-0.31 0.752-0.31 0.589 0 1.066 0.477 1.066 1.066s-0.477 1.066-1.066 1.066h-0.003c-0.587-0.003-1.061-0.48-1.061-1.067 0-0.295 0.12-0.563 0.314-0.756l0-0h-0.002zM21.11 9.738l-0.598 2.946-1.175-1.182 1.774-1.763zM20.504 8.836l-1.92 1.909-1.485-1.493 3.405-0.415zM23.090 28.8c0.884 0 1.6 0.716 1.6 1.6v0 0.533h-23.467v-0.533c0-0.884 0.716-1.6 1.6-1.6v0h20.267zM15.623 26.667v1.067h-5.333v-1.067h5.333zM10.29 25.6v-4.053c0-1.294 1.196-2.347 2.667-2.347s2.667 1.053 2.667 2.347v4.053h-5.333zM16.69 23.904v-2.357c0-1.882-1.675-3.413-3.733-3.413-0.017-0-0.038-0-0.058-0-1.353 0-2.54 0.707-3.213 1.771l-0.009 0.016c-2.36-2.482-3.811-5.846-3.811-9.55 0-2.314 0.567-4.496 1.569-6.414l-0.036 0.077 18.602 18.708c-1.823 0.947-3.979 1.502-6.266 1.502-1.079 0-2.129-0.124-3.136-0.358l0.093 0.018zM27.979 23.22l-21.057-21.181 0.755-0.752 7.935 7.98c0.004 0 0.006 0.007 0.010 0.010l13.115 13.191-0.757 0.752z"></path>
</symbol>
<symbol id="icon-astronaut" viewBox="0 0 32 32">
<path fill="#2196f3" style="fill: var(--color1, #2196f3)" d="M31.974 4.524c-0.064-0.191-0.227-0.332-0.427-0.363l-0.003-0-1.91-0.278-0.855-1.731c-0.179-0.365-0.777-0.365-0.956 0l-0.855 1.731-1.91 0.278c-0.259 0.040-0.455 0.262-0.455 0.529 0 0.149 0.061 0.284 0.159 0.381l0 0 1.383 1.348-0.326 1.903c-0.034 0.2 0.048 0.402 0.212 0.522 0.087 0.064 0.195 0.102 0.313 0.102 0.091 0 0.177-0.023 0.252-0.064l-0.003 0.001 1.709-0.899 1.709 0.899c0.071 0.038 0.156 0.060 0.246 0.060 0.296 0 0.536-0.24 0.536-0.536 0-0.031-0.003-0.061-0.008-0.090l0 0.003-0.326-1.903 1.383-1.348c0.099-0.097 0.161-0.233 0.161-0.383 0-0.059-0.009-0.115-0.027-0.168l0.001 0.004zM29.511 5.851c-0.099 0.097-0.161 0.232-0.161 0.382 0 0.032 0.003 0.063 0.008 0.093l-0-0.003 0.191 1.114-1-0.526c-0.072-0.039-0.158-0.062-0.249-0.062s-0.177 0.023-0.252 0.063l0.003-0.001-1.001 0.526 0.191-1.114c0.005-0.027 0.008-0.058 0.008-0.090 0-0.15-0.061-0.285-0.161-0.382l-0-0-0.81-0.789 1.119-0.163c0.177-0.026 0.324-0.137 0.401-0.289l0.001-0.003 0.5-1.013 0.5 1.013c0.078 0.155 0.225 0.265 0.399 0.292l0.003 0 1.119 0.163-0.809 0.789zM26.134 20.522h-1.067v1.067h1.067v-1.067zM26.134 22.656h-1.067v1.067h1.067v-1.067zM27.2 21.589h-1.067v1.067h1.067v-1.067zM25.067 21.589h-1.067v1.067h1.067v-1.067zM22.4 26.389h-1.067v1.067h1.067v-1.067zM22.4 28.522h-1.067v1.067h1.067v-1.067zM23.467 27.456h-1.067v1.067h1.067v-1.067zM21.333 27.456h-1.067v1.067h1.067v-1.067zM16 24.256h-1.067v1.067h1.067v-1.067zM16 26.389h-1.067v1.067h1.067v-1.067zM17.067 25.322h-1.067v1.067h1.067v-1.067zM14.933 25.322h-1.067v1.067h1.067v-1.067zM5.867 6.122h-1.067v1.067h1.067v-1.067zM5.867 8.255h-1.067v1.067h1.067v-1.067z"></path>
<path fill="#2196f3" style="fill: var(--color1, #2196f3)" d="M6.933 7.189h-1.067v1.067h1.067v-1.067zM4.8 7.189h-1.067v1.067h1.067v-1.067z"></path>
<path fill="#212121" style="fill: var(--color2, #212121)" d="M24.715 14.159c-0.28-0.376-0.698-0.636-1.179-0.704l-0.009-0.001c-0.076-0.012-0.164-0.018-0.254-0.018-0.411 0-0.789 0.139-1.090 0.373l0.004-0.003-1.252 0.96-1.898 1.417-1.358-0.541c2.421-1.086 4.114-3.508 4.114-6.32 0-3.823-3.123-6.933-6.961-6.933s-6.961 3.11-6.961 6.933c0 0 0 0.001 0 0.001 0 1.398 0.418 2.698 1.136 3.782l-0.016-0.025-2.769-0.024c-0.009 0-0.015 0.004-0.023 0.005-0.056 0.002-0.109 0.014-0.159 0.032l0.004-0.001-0.038 0.013c-0.006 0.003-0.013 0.003-0.019 0.006l-3.234 1.597-1.893 0.911c-0.024 0.011-0.045 0.023-0.064 0.036l0.001-0.001c-0.482 0.323-0.795 0.866-0.795 1.482 0 0.297 0.073 0.577 0.201 0.823l-0.005-0.010c0.22 0.429 0.595 0.745 1.056 0.889 0.161 0.053 0.346 0.083 0.538 0.083 0.308 0 0.597-0.078 0.85-0.216l-0.009 0.005 1.388-0.738 2.264-1.169 1.357-0.008-6.783 6.75c-0.316 0.315-0.49 0.732-0.49 1.178s0.174 0.863 0.49 1.179c0.325 0.323 0.752 0.485 1.179 0.485s0.854-0.162 1.18-0.485l1.314-1.309 1.741-1.3 0.901 0.897-3.103 3.088c-0.316 0.315-0.49 0.732-0.49 1.178s0.174 0.863 0.49 1.179c0.325 0.323 0.753 0.485 1.18 0.485s0.855-0.162 1.18-0.485l3.483-3.469 1.010-1-0.004-0.004c0.006-0.006 0.015-0.009 0.022-0.015l5.166-5.658 3.471 0.494c0.020 0.003 0.044 0.005 0.068 0.005 0.070 0 0.136-0.014 0.197-0.039l-0.003 0.001c0.018-0.006 0.033-0.015 0.050-0.023 0.019-0.010 0.039-0.015 0.058-0.027l3.213-2.133c0.012-0.008 0.018-0.021 0.029-0.029 0.013-0.010 0.029-0.014 0.041-0.026l1.271-1.191c0.662-0.62 0.753-1.635 0.212-2.362zM2.13 17.77c-0.098 0.054-0.215 0.086-0.34 0.086-0.078 0-0.153-0.012-0.223-0.036l0.005 0.001c-0.294-0.094-0.503-0.365-0.503-0.684 0-0.235 0.113-0.444 0.288-0.574l0.002-0.001 1.314-0.632 0.449 1.313-0.992 0.527zM5.628 15.942l-1.548 0.8-0.439-1.283 2.027-1.001-0.040 1.484zM20.727 9.322c-0.001 0.932-0.222 1.813-0.614 2.592l0.015-0.033-4.181-1.899c-0.044-0.575-0.342-1.073-0.782-1.384l-0.006-0.004 1.464-4.86c2.378 0.756 4.105 2.974 4.105 5.588zM8.938 9.322c0-3.235 2.644-5.867 5.894-5.867 0.253 0 0.5 0.021 0.745 0.052l-1.432 4.754c-0.019-0.001-0.037-0.006-0.057-0.006-1.033 0-1.873 0.837-1.873 1.867s0.84 1.867 1.873 1.867c0.694 0 1.294-0.383 1.618-0.945l3.862 1.755c-1.085 1.456-2.802 2.389-4.737 2.39h-0c-3.25 0-5.894-2.632-5.894-5.867zM14.894 10.122c0 0.441-0.362 0.8-0.806 0.8s-0.806-0.359-0.806-0.8c0-0.441 0.362-0.8 0.806-0.8s0.806 0.359 0.806 0.8zM2.465 25.146c-0.11 0.109-0.261 0.176-0.428 0.176s-0.317-0.067-0.427-0.175l0 0c-0.109-0.107-0.177-0.257-0.177-0.422s0.068-0.315 0.177-0.422l0-0 0.962-0.959 0.851 0.848-0.959 0.955zM5.679 28.88c-0.11 0.109-0.261 0.176-0.428 0.176s-0.317-0.067-0.427-0.175l0 0c-0.109-0.107-0.177-0.257-0.177-0.422s0.068-0.315 0.177-0.422l0-0 0.963-0.959 0.852 0.848-0.96 0.955zM9.16 25.411l-0.002 0.001-1.765 1.76-0.852-0.848 1.765-1.756c0.040-0.040 0.065-0.088 0.090-0.135 0.007-0.014 0.020-0.026 0.026-0.040 0.017-0.041 0.019-0.085 0.026-0.129 0.003-0.025 0.014-0.047 0.014-0.073 0-0.036-0.013-0.070-0.020-0.106-0.006-0.032-0.006-0.065-0.019-0.095-0.025-0.053-0.055-0.098-0.091-0.138l0 0c-0.010-0.012-0.014-0.027-0.025-0.038h-0.001l-0.001-0.002-1.607-1.6c-0.017-0.017-0.039-0.024-0.058-0.038-0.025-0.021-0.054-0.040-0.084-0.057l-0.003-0.001c-0.026-0.013-0.057-0.024-0.089-0.032l-0.004-0.001c-0.030-0.009-0.065-0.017-0.101-0.020l-0.002-0c-0.006-0-0.014-0-0.021-0-0.026 0-0.052 0.002-0.076 0.006l0.003-0c-0.038 0.004-0.074 0.011-0.108 0.021l0.004-0.001c-0.036 0.013-0.067 0.028-0.096 0.046l0.002-0.001c-0.020 0.011-0.042 0.015-0.061 0.029l-1.773 1.324-0.901-0.897 2.399-2.386 4.361 4.289-0.928 0.919zM15.979 18.394c-0.015-0.002-0.030 0.004-0.045 0.003-0.006-0-0.013-0-0.020-0-0.103 0-0.199 0.028-0.282 0.077l0.003-0.001c-0.031 0.018-0.059 0.039-0.083 0.061l0-0c-0.013 0.011-0.028 0.017-0.040 0.029l-4.698 5.146-4.328-4.257 2.833-2.818c0.096-0.097 0.156-0.23 0.156-0.377 0-0.295-0.239-0.534-0.534-0.534-0 0-0.001 0-0.001 0h0v-0.001l-2.219 0.013 0.028-1.607 3.104 0.027c1.263 1.297 3.027 2.101 4.978 2.101 0.001 0 0.002 0 0.004 0h-0c0.437 0 0.864-0.045 1.279-0.123 0.040 0.032 0.079 0.065 0.13 0.085l2.41 0.96 0.152 0.758 0.178 0.885-3.003-0.427zM20.020 18.572l-0.313-1.558 1.446-1.080 0.947 1.257-2.080 1.381zM23.774 15.741l-0.838 0.785-0.931-1.236 0.831-0.637c0.122-0.093 0.277-0.15 0.445-0.15 0.035 0 0.069 0.002 0.102 0.007l-0.004-0c0.198 0.028 0.367 0.132 0.479 0.282l0.001 0.002c0.088 0.117 0.141 0.265 0.141 0.426 0 0.205-0.087 0.391-0.226 0.521l-0 0z"></path>
<path fill="#212121" style="fill: var(--color2, #212121)" d="M13.602 18.544l-2.143-2.133c-0.097-0.096-0.23-0.155-0.377-0.155s-0.28 0.059-0.377 0.155l0-0-2.142 2.133c-0.096 0.097-0.156 0.231-0.156 0.378s0.059 0.281 0.156 0.378l-0-0 2.142 2.133c0.097 0.096 0.23 0.154 0.377 0.154s0.28-0.059 0.377-0.155l-0 0 2.143-2.133c0.097-0.097 0.156-0.23 0.156-0.378s-0.060-0.281-0.156-0.378v0zM11.083 20.303l-1.387-1.381 1.387-1.381 1.387 1.381-1.387 1.381zM17.164 5.071l-0.258 1.036c0.071 0.018 1.738 0.452 1.738 2.149h1.067c0-2.017-1.666-2.965-2.547-3.185zM19.711 9.322h-1.067v1.067h1.067v-1.067z"></path>
</symbol>
<symbol id="icon-clock" viewBox="0 0 31 32">
<path d="M30.84 15.301c-0.002-8.452-6.855-15.303-15.308-15.301s-15.303 6.855-15.301 15.308c0.001 6.788 4.422 12.543 10.541 14.545l0.108 0.031c0.057 0.018 0.123 0.028 0.19 0.028 0.125 0 0.242-0.034 0.343-0.094l-0.003 0.002c0.134-0.080 0.234-0.204 0.282-0.352l0.001-0.005 3.865-12.25c1.051-0.006 1.901-0.86 1.901-1.912 0-1.056-0.856-1.912-1.912-1.912-0.301 0-0.587 0.070-0.84 0.194l0.011-0.005-5.106-5.107c-0.115-0.115-0.275-0.187-0.451-0.187-0.352 0-0.638 0.286-0.638 0.638 0 0.176 0.071 0.336 0.187 0.451v0l5.103 5.109c-0.121 0.241-0.191 0.525-0.191 0.826 0 0.601 0.283 1.137 0.723 1.48l0.004 0.003-3.683 11.673c-7.278-2.681-11.004-10.754-8.323-18.032s10.754-11.004 18.032-8.323c7.278 2.681 11.004 10.754 8.324 18.032-1.345 3.581-4.003 6.406-7.374 7.937l-0.088 0.036-0.398-1.874c-0.063-0.291-0.319-0.505-0.624-0.505-0.163 0-0.312 0.061-0.425 0.162l0.001-0.001-3.837 3.426c-0.132 0.117-0.214 0.287-0.214 0.477 0 0.283 0.185 0.523 0.441 0.606l0.005 0.001 4.899 1.563c0.058 0.019 0.125 0.030 0.195 0.030 0.352 0 0.638-0.286 0.638-0.638 0-0.047-0.005-0.093-0.015-0.137l0.001 0.004-0.391-1.839c5.528-2.374 9.329-7.772 9.329-14.057 0-0.011 0-0.023-0-0.034v0.002zM15.535 14.664c0.353 0 0.639 0.286 0.639 0.639s-0.286 0.639-0.639 0.639v0c-0.353 0-0.639-0.286-0.639-0.639s0.286-0.639 0.639-0.639v0zM17.635 29.528l2.184-1.948 0.603 2.84-2.787-0.892z"></path>
</symbol>
<symbol id="icon-facebook" viewBox="0 0 18 32">
<path fill="#afb1b8" style="fill: var(--color3, #afb1b8)" d="M13.329 5.313h2.921v-5.088c-0.504-0.069-2.237-0.225-4.256-0.225-4.212 0-7.097 2.649-7.097 7.519v4.481h-4.648v5.688h4.648v14.312h5.699v-14.311h4.46l0.708-5.688h-5.169v-3.919c0.001-1.644 0.444-2.769 2.735-2.769z"></path>
</symbol>
<symbol id="icon-instagram" viewBox="0 0 32 32">
<path fill="#afb1b8" style="fill: var(--color3, #afb1b8)" d="M31.969 9.408c-0.075-1.7-0.35-2.869-0.744-3.882-0.424-1.111-1.053-2.058-1.849-2.837l-0.001-0.001c-0.779-0.792-1.724-1.419-2.778-1.826l-0.054-0.018c-1.019-0.394-2.182-0.669-3.882-0.744-1.713-0.081-2.257-0.1-6.601-0.1s-4.888 0.019-6.595 0.094c-1.7 0.075-2.869 0.35-3.882 0.744-1.111 0.424-2.058 1.053-2.837 1.849l-0.001 0.001c-0.792 0.78-1.419 1.724-1.826 2.778l-0.018 0.054c-0.394 1.019-0.669 2.182-0.744 3.882-0.081 1.713-0.1 2.257-0.1 6.601s0.019 4.888 0.094 6.595c0.075 1.7 0.35 2.869 0.744 3.882 0.427 1.11 1.056 2.057 1.849 2.837l0.001 0.001c0.78 0.792 1.724 1.419 2.778 1.826l0.054 0.018c1.019 0.394 2.182 0.669 3.882 0.744 1.706 0.075 2.25 0.094 6.595 0.094s4.888-0.019 6.595-0.094c1.7-0.075 2.869-0.35 3.882-0.744 2.157-0.85 3.832-2.525 4.663-4.627l0.019-0.055c0.394-1.019 0.669-2.182 0.744-3.882 0.075-1.707 0.094-2.251 0.094-6.595s-0.006-4.888-0.081-6.595zM29.087 22.473c-0.069 1.563-0.331 2.407-0.55 2.969-0.551 1.4-1.638 2.487-3.002 3.025l-0.036 0.013c-0.563 0.219-1.413 0.481-2.969 0.55-1.688 0.075-2.194 0.094-6.464 0.094s-4.782-0.019-6.464-0.094c-1.563-0.069-2.407-0.331-2.969-0.55-0.721-0.269-1.335-0.676-1.837-1.193l-0.001-0.001c-0.517-0.504-0.923-1.118-1.183-1.804l-0.011-0.034c-0.219-0.563-0.481-1.413-0.55-2.969-0.075-1.688-0.094-2.194-0.094-6.464s0.019-4.782 0.094-6.464c0.069-1.563 0.331-2.407 0.55-2.969 0.269-0.722 0.678-1.337 1.198-1.836l0.002-0.002c0.504-0.517 1.118-0.923 1.804-1.183l0.034-0.011c0.563-0.219 1.413-0.481 2.969-0.55 1.688-0.075 2.194-0.094 6.464-0.094 4.276 0 4.782 0.019 6.464 0.094 1.563 0.069 2.407 0.331 2.969 0.55 0.721 0.269 1.335 0.676 1.837 1.193l0.001 0.001c0.517 0.504 0.923 1.118 1.183 1.804l0.011 0.034c0.219 0.563 0.481 1.413 0.55 2.969 0.075 1.688 0.094 2.194 0.094 6.464s-0.019 4.77-0.094 6.458z"></path>
<path fill="#afb1b8" style="fill: var(--color3, #afb1b8)" d="M16.059 7.783c-4.538 0-8.22 3.682-8.22 8.22s3.682 8.22 8.22 8.22c4.539 0 8.22-3.682 8.22-8.22s-3.682-8.22-8.22-8.22zM16.059 21.335c-2.901-0.058-5.23-2.423-5.23-5.332s2.329-5.274 5.224-5.332l0.005-0c2.901 0.058 5.23 2.423 5.23 5.332s-2.329 5.274-5.224 5.332l-0.005 0zM26.524 7.458c0 1.060-0.859 1.919-1.919 1.919s-1.919-0.859-1.919-1.919v0c0-1.060 0.859-1.919 1.919-1.919s1.919 0.859 1.919 1.919v0z"></path>
</symbol>
<symbol id="icon-laptop" viewBox="0 0 41 32">
<path d="M2.073 31.933h33.168c1.145 0 2.073-0.928 2.073-2.073v0-2.764c0-1.145-0.928-2.073-2.073-2.073h-0.691v-17.232l3.925-3.718c0.267 0.133 0.582 0.211 0.914 0.211 1.152 0 2.086-0.934 2.086-2.086 0-0.565-0.224-1.077-0.589-1.453l0.001 0.001c-0.379-0.385-0.905-0.623-1.487-0.623-1.152 0-2.086 0.934-2.086 2.086 0 0.318 0.071 0.619 0.198 0.889l-0.005-0.013-2.957 2.803v-1.594c0-1.145-0.928-2.073-2.073-2.073v0h-27.64c-1.145 0-2.073 0.928-2.073 2.073v0 20.73h-0.691c-1.145 0-2.073 0.928-2.073 2.073v0 2.764c0 1.145 0.928 2.073 2.073 2.073zM39.387 1.529c0.381 0 0.691 0.309 0.691 0.691s-0.309 0.691-0.691 0.691v0c-0.381 0-0.691-0.309-0.691-0.691s0.309-0.691 0.691-0.691v0zM4.146 4.293c0-0 0-0.001 0-0.001 0-0.381 0.309-0.69 0.69-0.69 0 0 0.001 0 0.001 0h27.64c0 0 0.001 0 0.001 0 0.381 0 0.69 0.309 0.69 0.69 0 0 0 0.001 0 0.001v-0 2.902l-1.382 1.313v-2.833c0-0 0-0.001 0-0.001 0-0.381-0.309-0.69-0.69-0.69-0 0-0.001 0-0.001 0h-24.876c-0 0-0.001 0-0.001 0-0.381 0-0.69 0.309-0.69 0.69 0 0 0 0.001 0 0.001v-0 17.275c0 0 0 0.001 0 0.001 0 0.381 0.309 0.69 0.69 0.69 0 0 0.001 0 0.001 0h24.876c0 0 0.001 0 0.001 0 0.381 0 0.69-0.309 0.69-0.69 0-0 0-0.001 0-0.001v0-12.541l1.382-1.309v15.923h-29.022v-20.73zM10.365 13.276c-0.004-0-0.008-0-0.012-0-1.144 0-2.071 0.927-2.071 2.071 0 0.756 0.405 1.417 1.010 1.779l0.009 0.005c0.302 0.182 0.667 0.29 1.058 0.29 0.56 0 1.069-0.222 1.442-0.584l-0.001 0.001 2.402 1.205c0.090 0.046 0.196 0.073 0.309 0.073 0.205 0 0.389-0.089 0.515-0.231l0.001-0.001 5.106-5.744 5.019 3.761c0.114 0.086 0.258 0.138 0.414 0.138 0.184 0 0.351-0.072 0.475-0.19l-0 0 4.362-4.132v10.54h-23.494v-15.893h23.494v3.449l-4.889 4.63-5.061-3.794c-0.114-0.086-0.258-0.138-0.415-0.138-0.205 0-0.389 0.089-0.516 0.23l-0.001 0.001-5.176 5.824-1.935-0.968c0.014-0.083 0.023-0.167 0.026-0.251 0-1.145-0.928-2.073-2.073-2.073v0zM11.056 15.349c0 0.381-0.309 0.691-0.691 0.691s-0.691-0.309-0.691-0.691v0c0-0.381 0.309-0.691 0.691-0.691s0.691 0.309 0.691 0.691v0zM15.202 26.405h6.91v0.691c0 0 0 0.001 0 0.001 0 0.381-0.309 0.69-0.69 0.69-0 0-0.001 0-0.001 0h-5.528c-0 0-0.001 0-0.001 0-0.381 0-0.69-0.309-0.69-0.69 0-0 0-0.001 0-0.001v0-0.691zM1.382 27.096c0-0 0-0.001 0-0.001 0-0.381 0.309-0.69 0.69-0.69 0 0 0.001 0 0.001 0h11.747v0.691c0 1.145 0.928 2.073 2.073 2.073h5.528c1.145 0 2.073-0.928 2.073-2.073v0-0.691h11.747c0 0 0.001 0 0.001 0 0.381 0 0.69 0.309 0.69 0.69 0 0 0 0.001 0 0.001v-0 2.764c0 0 0 0.001 0 0.001 0 0.381-0.309 0.69-0.69 0.69-0 0-0.001 0-0.001 0h-33.168c-0 0-0.001 0-0.001 0-0.381 0-0.69-0.309-0.69-0.69 0-0 0-0.001 0-0.001v0-2.764z"></path>
</symbol>
<symbol id="icon-linkedin" viewBox="0 0 32 32">
<path fill="#afb1b8" style="fill: var(--color3, #afb1b8)" d="M31.992 32v-0.001h0.008v-11.736c0-5.741-1.236-10.164-7.948-10.164-3.227 0-5.392 1.771-6.276 3.449h-0.093v-2.913h-6.364v21.364h6.627v-10.579c0-2.785 0.528-5.479 3.977-5.479 3.399 0 3.449 3.179 3.449 5.657v10.401h6.62zM0.528 10.636h6.635v21.364h-6.635v-21.364zM3.843 0c-2.121 0-3.843 1.721-3.843 3.843s1.721 3.879 3.843 3.879c2.121 0 3.843-1.757 3.843-3.879-0.002-2.122-1.721-3.841-3.843-3.843h-0z"></path>
</symbol>
<symbol id="icon-mail" viewBox="0 0 43 32">
<path fill="#2196f3" style="fill: var(--color1, #2196f3)" d="M38.667 0h-34.667c-2.206 0-4 1.794-4 4v24c0 2.206 1.794 4 4 4h34.667c2.206 0 4-1.794 4-4v-24c0-2.206-1.794-4-4-4zM38.667 2.667c0.181 0 0.353 0.038 0.511 0.103l-17.844 15.466-17.844-15.466c0.151-0.065 0.327-0.103 0.511-0.103h34.667zM38.667 29.333h-34.667c-0.736-0.001-1.332-0.597-1.333-1.333v-22.413l17.793 15.421c0.233 0.202 0.539 0.326 0.874 0.326s0.641-0.123 0.876-0.327l-0.002 0.001 17.793-15.421v22.413c0 0.736-0.598 1.333-1.333 1.333z"></path>
</symbol>
<symbol id="icon-partner-01" viewBox="0 0 25 32">
<path fill="#afb1b8" style="fill: var(--color3, #afb1b8)" d="M10.447 1.806h0.084c0.156 0 0.324 0.016 0.49 0.030 0.734 0.052 1.463 0.162 2.179 0.329v-1.762c-0.652-0.172-1.42-0.299-2.208-0.356l-0.042-0.002c-0.253-0.020-0.569-0.036-0.887-0.044l-0.022-0h-0.263c-1.607 0.006-3.162 0.218-4.643 0.611l0.128-0.029c-1.816 0.46-3.411 1.128-4.875 1.994l0.085-0.046v17.475c1.312-0.729 2.832-1.338 4.431-1.75l0.135-0.029c1.123-0.299 2.434-0.509 3.78-0.586l0.053-0.002h0.051c0.216-0.011 0.433-0.017 0.655-0.019v-1.79c-1.78 0.024-3.494 0.264-5.129 0.695l0.147-0.033c-0.752 0.191-1.33 0.367-1.898 0.563l0.167-0.050-0.623 0.211v-13.625l0.266-0.128c1.89-0.918 4.095-1.512 6.424-1.649l0.047-0.002c0.008-0 0.018-0.001 0.028-0.001s0.020 0 0.029 0.001l-0.001-0c0.248-0.013 0.497-0.019 0.741-0.019h0.28c0.129 0.003 0.258 0.006 0.388 0.014z"></path>
<path fill="#afb1b8" style="fill: var(--color3, #afb1b8)" d="M14.837 3.651c-0.009 0-0.020 0-0.030 0-0.91 0-1.801-0.077-2.669-0.224l0.093 0.013c-0.277-0.047-0.55-0.103-0.814-0.164v17.275c0.996 0.257 2.14 0.404 3.319 0.404 0.037 0 0.075-0 0.112-0l-0.006 0c1.607-0.007 3.162-0.218 4.643-0.61l-0.128 0.029c1.817-0.461 3.413-1.129 4.877-1.995l-0.085 0.047v-17.163c-1.311 0.728-2.83 1.338-4.428 1.751l-0.136 0.030c-1.423 0.381-3.058 0.602-4.743 0.609h-0.004zM21.745 3.95l0.623-0.21v13.63l-0.266 0.128c-0.903 0.443-1.963 0.834-3.066 1.118l-0.118 0.026c-1.331 0.344-2.7 0.522-4.074 0.527-0.411 0-0.819-0.017-1.214-0.052l-0.427-0.038v-14.017l0.497 0.033c0.361 0.023 0.735 0.034 1.141 0.034 1.841-0.007 3.622-0.248 5.32-0.696l-0.147 0.033c0.773-0.201 1.351-0.378 1.919-0.574l-0.188 0.056zM1.684 25.977c-0.166-0.173-0.4-0.281-0.658-0.281-0.012 0-0.024 0-0.037 0.001l0.002-0c-0.004-0-0.009-0-0.013-0-0.139 0-0.272 0.028-0.394 0.078l0.007-0.003c-0.236 0.096-0.419 0.281-0.51 0.512l-0.002 0.006c-0.046 0.112-0.072 0.241-0.072 0.377 0 0.003 0 0.007 0 0.010v-0.001 2.335c-0.006 0.165 0.026 0.328 0.092 0.479 0.055 0.12 0.135 0.226 0.233 0.313 0.089 0.076 0.197 0.133 0.315 0.165l0.006 0.001c0.114 0.032 0.231 0.048 0.349 0.049 0.402-0.004 0.746-0.252 0.89-0.604l0.002-0.006c0.047-0.109 0.075-0.236 0.075-0.37 0-0.001 0-0.001 0-0.002v0-0.261h-0.61v0.208c0 0.005 0 0.010 0 0.016 0 0.069-0.013 0.135-0.038 0.196l0.001-0.004c-0.021 0.052-0.051 0.095-0.089 0.131l-0 0c-0.036 0.029-0.079 0.052-0.125 0.066l-0.003 0.001c-0.038 0.013-0.082 0.021-0.128 0.022h-0c-0.010 0.001-0.022 0.002-0.034 0.002-0.103 0-0.194-0.049-0.252-0.126l-0.001-0.001c-0.051-0.082-0.082-0.181-0.082-0.288 0-0.009 0-0.018 0.001-0.027l-0 0.001v-2.177c-0-0.007-0-0.016-0-0.024 0-0.118 0.028-0.23 0.077-0.329l-0.002 0.004c0.056-0.087 0.152-0.143 0.261-0.143 0.013 0 0.026 0.001 0.039 0.002l-0.002-0c0.003-0 0.006-0 0.009-0 0.107 0 0.202 0.051 0.263 0.13l0.001 0.001c0.068 0.090 0.104 0.2 0.101 0.313v0.202h0.604v-0.238c0-0.002 0-0.005 0-0.008 0-0.281-0.106-0.537-0.28-0.73l0.001 0.001zM5.31 25.95c-0.184-0.16-0.425-0.258-0.69-0.258s-0.506 0.098-0.691 0.259l0.001-0.001c-0.099 0.090-0.179 0.198-0.235 0.321l-0.002 0.006c-0.056 0.128-0.089 0.277-0.089 0.434 0 0.006 0 0.013 0 0.019v-0.001 2.239c-0 0.009-0 0.019-0 0.029 0 0.156 0.033 0.303 0.092 0.437l-0.003-0.007c0.055 0.12 0.136 0.227 0.237 0.313 0.090 0.084 0.197 0.151 0.316 0.195l0.006 0.002c0.108 0.042 0.233 0.067 0.364 0.067s0.256-0.024 0.371-0.069l-0.007 0.002c0.121-0.044 0.233-0.111 0.33-0.197 0.096-0.086 0.173-0.19 0.228-0.307l0.002-0.006c0.056-0.127 0.089-0.275 0.089-0.43 0-0.010-0-0.020-0-0.030l0 0.001v-2.239c0-0.007 0-0.014 0-0.022 0-0.155-0.033-0.303-0.092-0.437l0.003 0.007c-0.057-0.128-0.135-0.236-0.23-0.327l-0-0zM5.025 28.969c0.001 0.010 0.001 0.022 0.001 0.034 0 0.114-0.047 0.216-0.122 0.29l-0 0c-0.077 0.065-0.177 0.105-0.287 0.105s-0.21-0.040-0.288-0.105l0.001 0.001c-0.076-0.072-0.123-0.174-0.123-0.287 0-0.013 0.001-0.026 0.002-0.039l-0 0.002v-2.239c-0.001-0.010-0.001-0.022-0.001-0.034 0-0.114 0.047-0.216 0.122-0.29l0-0c0.077-0.065 0.177-0.105 0.287-0.105s0.21 0.040 0.288 0.105l-0.001-0.001c0.076 0.072 0.123 0.174 0.123 0.287 0 0.013-0.001 0.026-0.002 0.039l0-0.002v2.239zM10.072 29.969v-4.239h-0.587l-0.771 2.244h-0.011l-0.777-2.244h-0.581v4.239h0.606v-2.579h0.011l0.593 1.823h0.302l0.598-1.823h0.011v2.579h0.606zM13.513 26.027c-0.091-0.102-0.206-0.182-0.336-0.23l-0.006-0.002c-0.125-0.042-0.27-0.066-0.419-0.066-0.007 0-0.014 0-0.021 0h-0.899v4.239h0.604v-1.656h0.311c0.188 0.009 0.376-0.031 0.545-0.116 0.139-0.078 0.251-0.188 0.33-0.32l0.002-0.004c0.067-0.106 0.115-0.23 0.138-0.363l0.001-0.006c0.024-0.16 0.035-0.321 0.033-0.482 0.001-0.021 0.001-0.046 0.001-0.070 0-0.19-0.022-0.375-0.063-0.552l0.003 0.016c-0.043-0.153-0.12-0.284-0.223-0.39l0 0zM13.201 27.319c-0.003 0.081-0.024 0.157-0.057 0.224l0.001-0.003c-0.035 0.065-0.089 0.116-0.154 0.148l-0.002 0.001c-0.074 0.034-0.161 0.054-0.253 0.054-0.011 0-0.023-0-0.034-0.001l0.002 0h-0.276v-1.441h0.311c0.008-0 0.018-0.001 0.028-0.001 0.089 0 0.173 0.020 0.248 0.055l-0.004-0.002c0.062 0.037 0.111 0.090 0.141 0.155l0.001 0.002c0.032 0.069 0.051 0.15 0.053 0.235l0 0.001v0.282c0 0.099 0.006 0.2 0 0.291h-0.006zM16.374 25.73h-0.495l-0.934 4.239h0.604l0.177-0.911h0.824l0.177 0.911h0.604l-0.957-4.239zM15.817 28.481l0.297-1.537h0.011l0.296 1.537h-0.604zM20.277 28.284h-0.011l-0.912-2.554h-0.581v4.239h0.604v-2.549h0.012l0.923 2.549h0.568v-4.239h-0.604v2.554zM23.968 25.73l-0.486 1.685h-0.012l-0.486-1.685h-0.64l0.83 2.447v1.792h0.604v-1.792l0.83-2.447h-0.64zM0 31.166h0.291v0.817h0.198v-0.817h0.29v-0.167h-0.778v0.167zM2.447 30.998l-0.381 0.984h0.21l0.081-0.224h0.392l0.084 0.224h0.215l-0.391-0.984h-0.21zM2.416 31.593l0.134-0.365 0.134 0.365h-0.268zM4.866 31.62h0.227v0.127c-0.064 0.051-0.145 0.082-0.234 0.083h-0c-0.005 0-0.011 0.001-0.017 0.001-0.078 0-0.147-0.036-0.192-0.093l-0-0.001c-0.046-0.065-0.074-0.147-0.074-0.235 0-0.008 0-0.016 0.001-0.023l-0 0.001c0-0.219 0.095-0.329 0.283-0.329 0.006-0.001 0.014-0.001 0.022-0.001 0.097 0 0.178 0.067 0.2 0.157l0 0.001 0.195-0.038c-0.042-0.192-0.181-0.289-0.417-0.289-0.004-0-0.008-0-0.013-0-0.128 0-0.244 0.048-0.332 0.128l0-0c-0.088 0.089-0.142 0.212-0.142 0.347 0 0.011 0 0.023 0.001 0.034l-0-0.002c-0 0.007-0.001 0.016-0.001 0.025 0 0.132 0.048 0.252 0.127 0.345l-0.001-0.001c0.087 0.090 0.208 0.145 0.343 0.145 0.011 0 0.022-0 0.033-0.001l-0.001 0c0.005 0 0.010 0 0.016 0 0.155 0 0.296-0.060 0.401-0.158l-0 0v-0.388h-0.427v0.166zM7.337 30.998h-0.199v0.984h0.69v-0.167h-0.49v-0.817zM9.426 30.998h-0.199v0.984h0.199v-0.984zM11.469 31.656l-0.403-0.657h-0.193v0.984h0.185v-0.643l0.395 0.643h0.198v-0.984h-0.182v0.657zM13.315 31.549h0.49v-0.167h-0.49v-0.216h0.528v-0.167h-0.727v0.984h0.747v-0.167h-0.548v-0.266zM17.792 31.387h-0.388v-0.388h-0.198v0.984h0.198v-0.43h0.388v0.43h0.198v-0.984h-0.198v0.388zM19.649 31.549h0.492v-0.167h-0.492v-0.216h0.529v-0.167h-0.727v0.984h0.746v-0.167h-0.548v-0.266zM22.168 31.549c0.171-0.027 0.258-0.117 0.258-0.274 0.001-0.008 0.002-0.018 0.002-0.028 0-0.078-0.038-0.148-0.097-0.191l-0.001-0c-0.073-0.037-0.158-0.059-0.249-0.059-0.014 0-0.027 0-0.041 0.001l0.002-0h-0.417v0.984h0.198v-0.412h0.039c0.005-0 0.011-0.001 0.017-0.001 0.038 0 0.075 0.008 0.108 0.023l-0.002-0.001c0.029 0.018 0.052 0.042 0.069 0.071l0.001 0.001 0.215 0.313h0.237l-0.12-0.192c-0.054-0.096-0.128-0.175-0.216-0.234l-0.002-0.002zM21.969 31.413h-0.146v-0.247h0.156c0.013-0.001 0.027-0.002 0.042-0.002 0.057 0 0.112 0.009 0.163 0.026l-0.004-0.001c0.014 0.013 0.026 0.029 0.033 0.046 0.006 0.015 0.010 0.032 0.010 0.050 0 0.022-0.005 0.043-0.015 0.062l0-0.001c-0.009 0.017-0.022 0.032-0.037 0.043l-0 0c-0.048 0.015-0.104 0.024-0.162 0.024-0.014 0-0.028-0-0.041-0.002l0.002 0zM24.067 31.549h0.49v-0.167h-0.49v-0.216h0.529v-0.167h-0.729v0.984h0.747v-0.167h-0.548v-0.266z"></path>
</symbol>
<symbol id="icon-partner-02" viewBox="0 0 31 32">
<path fill="#afb1b8" style="fill: var(--color3, #afb1b8)" d="M4.722 31.103c0.023 0.001 0.044 0.010 0.059 0.025l-0-0 0.153 0.161c-0.119 0.13-0.266 0.234-0.431 0.305-0.168 0.069-0.364 0.11-0.569 0.11-0.015 0-0.030-0-0.044-0.001l0.002 0c-0.009 0-0.020 0-0.030 0-0.196 0-0.383-0.038-0.554-0.106l0.010 0.004c-0.331-0.134-0.587-0.397-0.709-0.724l-0.003-0.009c-0.062-0.165-0.098-0.356-0.098-0.555 0-0.006 0-0.011 0-0.017v0.001c-0.003-0.195 0.033-0.39 0.105-0.573 0.067-0.166 0.168-0.317 0.297-0.445 0.131-0.126 0.287-0.224 0.459-0.29 0.189-0.070 0.389-0.104 0.591-0.102 0.188-0.004 0.375 0.027 0.549 0.093 0.152 0.063 0.291 0.15 0.412 0.257l-0.128 0.171c-0.009 0.012-0.020 0.023-0.033 0.031l-0 0c-0.013 0.008-0.028 0.013-0.045 0.013-0.002 0-0.005-0-0.007-0l0 0c-0.021-0.002-0.040-0.008-0.057-0.018l0.001 0-0.069-0.046-0.096-0.058c-0.087-0.048-0.189-0.084-0.296-0.102l-0.006-0.001c-0.063-0.012-0.136-0.018-0.211-0.018-0.006 0-0.012 0-0.018 0h0.001c-0.005-0-0.011-0-0.017-0-0.147 0-0.287 0.028-0.416 0.080l0.008-0.003c-0.13 0.050-0.241 0.123-0.333 0.215l0-0c-0.092 0.095-0.165 0.21-0.214 0.336l-0.002 0.007c-0.054 0.145-0.080 0.298-0.078 0.452-0.002 0.156 0.024 0.312 0.078 0.46 0.047 0.126 0.119 0.242 0.212 0.341 0.087 0.091 0.193 0.163 0.312 0.21l0.006 0.002c0.125 0.049 0.259 0.074 0.394 0.073 0.078 0.001 0.156-0.004 0.234-0.015 0.133-0.016 0.253-0.059 0.358-0.124l-0.004 0.002c0.054-0.034 0.104-0.072 0.151-0.113 0.019-0.017 0.045-0.028 0.073-0.029h0zM9.144 30.296c0.002 0.194-0.033 0.386-0.103 0.567-0.062 0.165-0.161 0.315-0.288 0.44s-0.282 0.224-0.452 0.289c-0.173 0.065-0.373 0.102-0.582 0.102s-0.409-0.037-0.594-0.106l0.012 0.004c-0.341-0.132-0.607-0.395-0.738-0.726l-0.003-0.009c-0.066-0.169-0.104-0.364-0.104-0.568s0.038-0.399 0.107-0.579l-0.004 0.011c0.065-0.166 0.164-0.317 0.291-0.447 0.128-0.121 0.281-0.216 0.45-0.279 0.374-0.139 0.79-0.139 1.164 0 0.17 0.066 0.324 0.165 0.452 0.29 0.126 0.127 0.224 0.276 0.289 0.44 0.071 0.183 0.106 0.376 0.103 0.571zM8.742 30.296c0-0.007 0-0.015 0-0.024 0-0.155-0.027-0.304-0.076-0.442l0.003 0.009c-0.086-0.256-0.278-0.457-0.522-0.554l-0.006-0.002c-0.126-0.048-0.271-0.075-0.423-0.075s-0.297 0.027-0.431 0.078l0.008-0.003c-0.251 0.099-0.444 0.299-0.529 0.55l-0.002 0.006c-0.046 0.136-0.073 0.293-0.073 0.456s0.027 0.32 0.076 0.466l-0.003-0.010c0.086 0.257 0.279 0.457 0.525 0.552l0.006 0.002c0.273 0.097 0.573 0.097 0.846 0 0.251-0.097 0.443-0.297 0.526-0.548l0.002-0.006c0.051-0.147 0.076-0.301 0.073-0.456zM12.161 30.774l0.040 0.102c0.023-0.057 0.038-0.090 0.053-0.124l-0.009 0.022c0.017-0.040 0.034-0.073 0.052-0.104l-0.002 0.004 0.978-1.694c0.019-0.029 0.036-0.047 0.056-0.053s0.041-0.010 0.064-0.010c0.006 0 0.011 0 0.017 0.001l-0.001-0h0.289v2.755h-0.343v-2.112c-0.001-0.014-0.002-0.031-0.002-0.047s0.001-0.033 0.002-0.050l-0 0.002-0.984 1.718c-0.012 0.026-0.033 0.047-0.058 0.063s-0.054 0.023-0.084 0.023h-0.056c-0.001 0-0.002 0-0.003 0-0.060 0-0.113-0.035-0.138-0.085l-0-0.001-1.013-1.729v2.213h-0.331v-2.75h0.289c0.004-0 0.009-0 0.014-0 0.024 0 0.047 0.003 0.068 0.010l-0.002-0c0.024 0.011 0.043 0.030 0.054 0.053l0.999 1.696c0.020 0.031 0.036 0.064 0.050 0.098zM15.842 30.638v1.032h-0.383v-2.752h0.854c0.010-0 0.021-0 0.032-0 0.158 0 0.311 0.022 0.457 0.063l-0.012-0.003c0.13 0.035 0.242 0.094 0.339 0.172l-0.002-0.001c0.083 0.072 0.148 0.163 0.189 0.265l0.002 0.005c0.041 0.1 0.065 0.216 0.065 0.337 0 0.005-0 0.010-0 0.016v-0.001c0 0.004 0 0.009 0 0.014 0 0.122-0.026 0.239-0.073 0.344l0.002-0.005c-0.049 0.11-0.119 0.202-0.206 0.274l-0.001 0.001c-0.095 0.080-0.208 0.143-0.332 0.18l-0.007 0.002c-0.13 0.041-0.279 0.064-0.434 0.064-0.009 0-0.019-0-0.028-0l-0.462-0.007zM15.842 30.342h0.463c0.003 0 0.007 0 0.011 0 0.102 0 0.2-0.015 0.293-0.044l-0.007 0.002c0.083-0.027 0.154-0.067 0.215-0.12l-0.001 0.001c0.056-0.049 0.1-0.11 0.129-0.179l0.001-0.003c0.029-0.067 0.046-0.145 0.046-0.226 0-0.002 0-0.004-0-0.006v0c0-0.007 0.001-0.016 0.001-0.024 0-0.154-0.066-0.292-0.172-0.387l-0-0c-0.126-0.094-0.284-0.15-0.456-0.15-0.021 0-0.042 0.001-0.062 0.002l0.003-0h-0.463v1.134zM20.987 31.673h-0.302c-0.001 0-0.003 0-0.005 0-0.030 0-0.057-0.010-0.079-0.026l0 0c-0.021-0.017-0.039-0.038-0.050-0.063l-0-0.001-0.26-0.666h-1.307l-0.27 0.666c-0.010 0.025-0.027 0.046-0.048 0.062l-0 0c-0.022 0.017-0.050 0.027-0.080 0.027-0.002 0-0.004-0-0.006-0h-0.302l1.148-2.756h0.398l1.164 2.756zM19.092 30.65h1.080l-0.456-1.122c-0.031-0.071-0.060-0.157-0.083-0.246l-0.003-0.013-0.044 0.144c-0.013 0.044-0.029 0.084-0.042 0.117l-0.452 1.12zM22.641 28.931c0.023 0.012 0.042 0.028 0.057 0.049l0 0 1.675 2.077v-2.139h0.343v2.756h-0.191c-0.002 0-0.003 0-0.005 0-0.026 0-0.051-0.006-0.074-0.017l0.001 0c-0.024-0.013-0.044-0.030-0.061-0.051l-0-0-1.673-2.075c0.001 0.014 0.002 0.031 0.002 0.047s-0.001 0.033-0.002 0.050l0-0.002v2.048h-0.343v-2.756h0.203c0.002-0 0.003-0 0.005-0 0.023 0 0.045 0.005 0.065 0.014l-0.001-0zM27.537 30.577v1.094h-0.383v-1.094l-1.059-1.66h0.343c0.002-0 0.005-0 0.008-0 0.028 0 0.054 0.009 0.075 0.024l-0-0c0.020 0.018 0.038 0.038 0.051 0.061l0.001 0.001 0.662 1.071c0.044 0.070 0.084 0.151 0.114 0.236l0.003 0.009 0.050-0.119c0.019-0.043 0.040-0.085 0.065-0.126l0.653-1.078c0.014-0.022 0.031-0.041 0.050-0.058l0-0c0.020-0.017 0.046-0.027 0.075-0.027 0.003 0 0.005 0 0.008 0l-0-0h0.346l-1.060 1.667zM11.971 24.293c0.167 0.020 0.335 0.036 0.505 0.051 2.583-1.101 4.768-2.902 6.282-5.18s2.29-4.929 2.231-7.624l-2.846-2.712c0.579 2.869 0.308 5.836-0.782 8.567s-2.956 5.12-5.389 6.898z"></path>
<path fill="#afb1b8" style="fill: var(--color3, #afb1b8)" d="M10.955 24.167l0.077 0.015c2.6-1.772 4.583-4.247 5.691-7.104s1.292-5.965 0.526-8.922l-4.054-3.862c1.64 3.175 2.3 6.728 1.903 10.246s-1.833 6.857-4.143 9.628zM24.704 14.725c-0.689 2.961-2.362 5.632-4.77 7.616-0.665 0.553-1.406 1.066-2.191 1.511l-0.075 0.039c1.961-0.549 3.764-1.52 5.269-2.838s2.672-2.947 3.412-4.763l-1.644-1.565z"></path>
<path fill="#afb1b8" style="fill: var(--color3, #afb1b8)" d="M24.059 14.289l-2.341-2.23c-0.045 2.543-0.803 5.028-2.197 7.197s-3.372 3.943-5.729 5.137h0.011c0.554-0 1.1-0.032 1.637-0.095l-0.065 0.006c2.203-0.857 4.148-2.219 5.664-3.967s2.553-3.825 3.021-6.047zM11.294 2.664l-2.793-2.664c-2.497 0.919-4.644 2.535-6.161 4.636s-2.332 4.589-2.34 7.139c0.009 2.818 1.005 5.552 2.829 7.77s4.372 3.793 7.242 4.476c2.561-2.973 4.061-6.647 4.281-10.488s-0.851-7.648-3.058-10.869zM30.512 13.878c-0.010-3.343-1.409-6.546-3.89-8.91s-5.843-3.696-9.352-3.706c-0.007 0-0.015-0-0.023-0-1.694 0-3.316 0.308-4.812 0.872l0.094-0.031 17.099 16.291c0.585-1.44 0.885-2.971 0.884-4.515z"></path>
</symbol>
<symbol id="icon-partner-03" viewBox="0 0 60 32">
<path fill="#2196f3" style="fill: var(--color1, #2196f3)" d="M9.229 9.548h-0.002c-1.684 0-3.048 1.33-3.048 2.971v0.002c0 1.641 1.365 2.971 3.048 2.971h0.002c1.684 0 3.048-1.33 3.048-2.971v-0.002c0-1.641-1.365-2.971-3.048-2.971zM31.73 8.599c-0.005-2.279-0.936-4.463-2.589-6.074s-3.894-2.519-6.233-2.524c-2.339 0.004-4.581 0.911-6.235 2.523s-2.586 3.796-2.59 6.076v12.566s17.645-1.915 17.647-12.564v-0.002zM0 25.289c0.004 1.586 0.652 3.105 1.803 4.226s2.709 1.753 4.336 1.758c1.627-0.005 3.185-0.636 4.336-1.757s1.799-2.64 1.803-4.225v-8.744s-12.278 1.334-12.278 8.742zM6.139 26.856c-0.318 0-0.629-0.092-0.893-0.264s-0.47-0.417-0.592-0.703-0.154-0.601-0.091-0.905c0.062-0.304 0.215-0.583 0.44-0.802s0.511-0.368 0.823-0.429c0.312-0.060 0.635-0.029 0.929 0.089s0.545 0.319 0.721 0.577c0.17 0.244 0.271 0.546 0.271 0.872 0 0.216-0.045 0.422-0.125 0.609l0.004-0.010c-0.168 0.389-0.476 0.691-0.859 0.847l-0.011 0.004c-0.195 0.079-0.405 0.12-0.617 0.12v-0.006zM18.671 25.884h-1.256v1.297h-0.654v-3.174h2.067v0.53h-1.413v0.82h1.256v0.528zM21.815 25.666c0 0.312-0.055 0.587-0.166 0.822s-0.269 0.417-0.475 0.545c-0.205 0.128-0.44 0.192-0.706 0.192-0.263 0-0.498-0.063-0.704-0.19s-0.366-0.307-0.48-0.541c-0.109-0.23-0.172-0.499-0.172-0.783 0-0.010 0-0.020 0-0.029l-0 0.001v-0.157c0-0.312 0.056-0.587 0.168-0.824 0.105-0.228 0.269-0.415 0.472-0.544l0.005-0.003c0.206-0.128 0.442-0.192 0.706-0.192s0.499 0.064 0.704 0.192c0.206 0.126 0.366 0.309 0.477 0.547 0.113 0.237 0.17 0.511 0.17 0.822v0.142zM21.152 25.522c0-0.333-0.060-0.586-0.179-0.759s-0.289-0.259-0.51-0.259c-0.007-0-0.016-0-0.024-0-0.201 0-0.377 0.101-0.482 0.255l-0.001 0.002c-0.119 0.17-0.18 0.42-0.181 0.75v0.155c0 0.324 0.060 0.576 0.179 0.754s0.291 0.268 0.515 0.268c0.22 0 0.388-0.086 0.506-0.257 0.118-0.173 0.177-0.424 0.179-0.754v-0.155zM23.936 26.348c0-0.006 0.001-0.012 0.001-0.019 0-0.108-0.051-0.203-0.131-0.264l-0.001-0.001c-0.087-0.067-0.244-0.137-0.471-0.209-0.21-0.065-0.388-0.139-0.558-0.227l0.019 0.009c-0.36-0.195-0.541-0.457-0.541-0.787 0-0.172 0.048-0.324 0.144-0.458 0.106-0.14 0.246-0.249 0.41-0.314l0.006-0.002c0.182-0.076 0.385-0.113 0.61-0.113 0.227 0 0.429 0.041 0.606 0.124 0.171 0.076 0.311 0.195 0.41 0.344l0.002 0.003c0.099 0.15 0.148 0.32 0.148 0.51h-0.654c0-0.007 0.001-0.016 0.001-0.024 0-0.124-0.053-0.236-0.137-0.314l-0-0c-0.092-0.081-0.22-0.122-0.386-0.122-0.011-0.001-0.023-0.001-0.036-0.001-0.126 0-0.242 0.039-0.339 0.104l0.002-0.001c-0.081 0.058-0.133 0.152-0.133 0.258 0 0.003 0 0.005 0 0.008v-0c0 0.103 0.052 0.19 0.155 0.259 0.105 0.070 0.258 0.135 0.46 0.196 0.372 0.112 0.643 0.251 0.813 0.416s0.255 0.372 0.255 0.619c0 0.009 0.001 0.020 0.001 0.030 0 0.253-0.122 0.477-0.311 0.616l-0.002 0.001c-0.208 0.156-0.488 0.233-0.839 0.233-0.244 0-0.467-0.044-0.667-0.133-0.189-0.080-0.344-0.206-0.458-0.365l-0.002-0.003c-0.099-0.147-0.157-0.328-0.157-0.522 0-0.007 0-0.013 0-0.020l-0 0.001h0.656c0 0.35 0.209 0.525 0.628 0.525 0.011 0.001 0.024 0.001 0.037 0.001 0.121 0 0.235-0.035 0.33-0.097l-0.002 0.001c0.080-0.057 0.131-0.15 0.131-0.255 0-0.004-0-0.008-0-0.012l0 0.001zM27.427 24.536h-0.972v2.645h-0.654v-2.645h-0.959v-0.53h2.586v0.53zM29.712 25.805h-1.256v0.85h1.474v0.525h-2.128v-3.174h2.124v0.53h-1.469v0.757h1.256v0.512zM31.489 26.019h-0.521v1.162h-0.654v-3.174h1.18c0.375 0 0.664 0.084 0.868 0.251s0.305 0.403 0.305 0.709c0 0.011 0.001 0.023 0.001 0.036 0 0.188-0.053 0.363-0.145 0.511l0.002-0.004c-0.105 0.152-0.249 0.271-0.419 0.342l-0.006 0.002 0.687 1.297v0.030h-0.702l-0.595-1.162zM30.967 25.489h0.528c0.164 0 0.291-0.041 0.382-0.124 0.090-0.084 0.135-0.2 0.135-0.347 0-0.008 0.001-0.017 0.001-0.026 0-0.127-0.049-0.242-0.13-0.327l0 0c-0.084-0.086-0.214-0.129-0.39-0.129h-0.525v0.953zM34.931 26.063v1.118h-0.654v-3.174h1.238c0.238 0 0.448 0.044 0.628 0.131 0.176 0.082 0.319 0.21 0.417 0.369l0.002 0.004c0.097 0.16 0.146 0.342 0.146 0.547 0 0.311-0.107 0.557-0.321 0.737-0.212 0.179-0.507 0.268-0.883 0.268h-0.573zM34.931 25.533h0.584c0.173 0 0.305-0.041 0.395-0.122 0.092-0.081 0.137-0.198 0.137-0.349 0-0.156-0.046-0.281-0.137-0.377s-0.218-0.145-0.379-0.148h-0.6v0.996zM39.069 25.805h-1.256v0.85h1.474v0.525h-2.128v-3.174h2.124v0.53h-1.469v0.757h1.256v0.512zM42.104 24.536h-0.972v2.645h-0.654v-2.645h-0.959v-0.53h2.586v0.53zM44.389 25.805h-1.256v0.85h1.474v0.525h-2.128v-3.174h2.124v0.53h-1.469v0.757h1.256v0.512zM46.166 26.019h-0.521v1.162h-0.654v-3.174h1.179c0.375 0 0.664 0.084 0.868 0.251s0.305 0.403 0.305 0.709c0 0.011 0.001 0.023 0.001 0.036 0 0.188-0.053 0.363-0.145 0.511l0.002-0.004c-0.105 0.152-0.249 0.271-0.419 0.342l-0.006 0.002 0.687 1.297v0.030h-0.702l-0.595-1.162zM45.645 25.489h0.528c0.164 0 0.291-0.041 0.382-0.124 0.090-0.084 0.135-0.2 0.135-0.347 0-0.008 0.001-0.017 0.001-0.026 0-0.127-0.049-0.242-0.13-0.327l0 0c-0.084-0.086-0.214-0.129-0.39-0.129h-0.525v0.953zM49.489 26.348c0-0.006 0.001-0.012 0.001-0.019 0-0.108-0.051-0.203-0.131-0.264l-0.001-0.001c-0.087-0.067-0.244-0.137-0.471-0.209-0.209-0.065-0.387-0.139-0.557-0.227l0.019 0.009c-0.36-0.195-0.541-0.457-0.541-0.787 0-0.172 0.048-0.324 0.144-0.458 0.106-0.14 0.246-0.249 0.41-0.314l0.006-0.002c0.182-0.076 0.385-0.113 0.61-0.113 0.227 0 0.429 0.041 0.606 0.124 0.171 0.076 0.311 0.195 0.41 0.344l0.002 0.003c0.099 0.15 0.148 0.32 0.148 0.51h-0.654c0-0.007 0.001-0.016 0.001-0.024 0-0.124-0.053-0.236-0.137-0.314l-0-0c-0.092-0.081-0.22-0.122-0.386-0.122-0.011-0.001-0.023-0.001-0.036-0.001-0.126 0-0.242 0.039-0.339 0.104l0.002-0.001c-0.081 0.058-0.133 0.152-0.133 0.258 0 0.003 0 0.005 0 0.008v-0c0 0.103 0.052 0.19 0.155 0.259 0.105 0.070 0.258 0.135 0.46 0.196 0.372 0.112 0.643 0.251 0.813 0.416s0.255 0.372 0.255 0.619c0 0.009 0.001 0.020 0.001 0.030 0 0.253-0.122 0.477-0.311 0.616l-0.002 0.001c-0.208 0.156-0.488 0.233-0.839 0.233-0.244 0-0.467-0.044-0.667-0.133-0.188-0.080-0.344-0.206-0.458-0.365l-0.002-0.003c-0.099-0.147-0.157-0.328-0.157-0.522 0-0.007 0-0.013 0-0.020l-0 0.001h0.656c0 0.35 0.209 0.525 0.628 0.525 0.011 0.001 0.024 0.001 0.037 0.001 0.121 0 0.234-0.035 0.33-0.097l-0.002 0.001c0.080-0.057 0.131-0.15 0.131-0.255 0-0.004-0-0.008-0-0.012l0 0.001z"></path>
</symbol>
<symbol id="icon-partner-04" viewBox="0 0 40 32">
<path fill="#afb1b8" style="fill: var(--color3, #afb1b8)" d="M3.055 26.742c0.156 0.194 0.24 0.438 0.236 0.688 0.001 0.016 0.001 0.034 0.001 0.053 0 0.324-0.141 0.615-0.365 0.815l-0.001 0.001c-0.261 0.2-0.593 0.321-0.953 0.321-0.038 0-0.076-0.001-0.113-0.004l0.005 0h-1.865v-4.361h1.827c0.361-0.024 0.718 0.078 1.012 0.29 0.218 0.184 0.355 0.458 0.355 0.764 0 0.018-0.001 0.037-0.002 0.055l0-0.003c0.011 0.241-0.065 0.477-0.212 0.667-0.139 0.169-0.331 0.29-0.549 0.34l-0.007 0.001c0.247 0.045 0.471 0.177 0.63 0.373zM0.868 26.084h0.781c0.016 0.001 0.035 0.002 0.055 0.002 0.166 0 0.32-0.055 0.443-0.148l-0.002 0.001c0.104-0.095 0.169-0.23 0.169-0.381 0-0.016-0.001-0.031-0.002-0.047l0 0.002c0.001-0.013 0.002-0.027 0.002-0.042 0-0.151-0.064-0.288-0.166-0.384l-0-0c-0.124-0.093-0.28-0.15-0.449-0.15-0.022 0-0.043 0.001-0.064 0.003l0.003-0h-0.768v1.144zM2.222 27.756c0.114-0.1 0.186-0.245 0.186-0.408 0-0.012-0-0.025-0.001-0.037l0 0.002c0-0.009 0.001-0.019 0.001-0.029 0-0.167-0.073-0.316-0.188-0.419l-0.001-0c-0.132-0.1-0.299-0.16-0.48-0.16-0.017 0-0.035 0.001-0.052 0.002l0.002-0h-0.819v1.199h0.83c0.014 0.001 0.031 0.001 0.047 0.001 0.179 0 0.344-0.057 0.479-0.154l-0.002 0.002zM6.79 28.617l-1.016-1.704h-0.382v1.704h-0.874v-4.361h1.655c0.417-0.029 0.83 0.104 1.152 0.371 0.245 0.251 0.397 0.595 0.397 0.974 0 0.313-0.103 0.601-0.277 0.833l0.003-0.004c-0.199 0.228-0.472 0.388-0.781 0.442l-0.008 0.001 1.082 1.743h-0.951zM5.392 26.318h0.715c0.497 0 0.745-0.22 0.745-0.66 0.001-0.012 0.001-0.026 0.001-0.040 0-0.175-0.070-0.334-0.184-0.45l0 0c-0.133-0.112-0.306-0.18-0.495-0.18-0.024 0-0.047 0.001-0.070 0.003l0.003-0h-0.724l0.008 1.327zM11.568 27.739h-1.742l-0.308 0.878h-0.917l1.6-4.312h0.991l1.593 4.312h-0.917l-0.301-0.878zM11.335 27.079l-0.637-1.841-0.637 1.841h1.273zM17.55 28.617h-0.868l-1.946-2.965v2.965h-0.866v-4.361h0.866l1.946 2.983v-2.983h0.868v4.361zM22.502 27.573c-0.182 0.33-0.45 0.593-0.775 0.764l-0.010 0.005c-0.335 0.174-0.732 0.276-1.153 0.276-0.024 0-0.047-0-0.071-0.001l0.003 0h-1.545v-4.361h1.545c0.422-0.011 0.841 0.081 1.22 0.268 0.332 0.168 0.606 0.433 0.785 0.761 0.172 0.333 0.272 0.727 0.272 1.144s-0.101 0.811-0.279 1.158l0.007-0.014zM21.509 27.469c0.239-0.278 0.385-0.643 0.385-1.041s-0.146-0.763-0.386-1.043l0.002 0.002c-0.264-0.232-0.612-0.374-0.993-0.374-0.033 0-0.065 0.001-0.097 0.003l0.004-0h-0.603v2.823h0.603c0.028 0.002 0.062 0.003 0.095 0.003 0.381 0 0.728-0.142 0.993-0.375l-0.002 0.001zM12.111 0s11.201 4.246 10.963 10.39v10.392s-11.193-4.248-10.959-10.392l-0.004-10.39zM33.054 18.349c2.005-1.402 4.428-2.346 7.050-2.627l0.067-0.006v-3.253c-2.995 1.181-5.437 3.226-7.082 5.826l-0.035 0.060z"></path>
<path fill="#afb1b8" style="fill: var(--color3, #afb1b8)" d="M31.783 19.329c1.749-3.487 4.693-6.159 8.283-7.513l0.105-0.035v-9.374s-15.952 6.048-15.614 14.797v14.795s0.711-0.27 1.829-0.778c0-0.473 0-0.95 0.051-1.43 0.349-4.206 2.342-7.888 5.326-10.447l0.021-0.017z"></path>
<path fill="#afb1b8" style="fill: var(--color3, #afb1b8)" d="M30.266 24.825c0.093-1.118 0.291-2.149 0.586-3.138l-0.028 0.109c-2.038 2.401-3.302 5.514-3.377 8.921l-0 0.016c0.906-0.437 1.96-0.982 3.068-1.623-0.191-0.908-0.3-1.952-0.3-3.021 0-0.445 0.019-0.885 0.056-1.32l-0.004 0.057zM30.9 24.878c-0.031 0.359-0.049 0.778-0.049 1.2 0 0.947 0.090 1.873 0.261 2.771l-0.015-0.092c4.358-2.618 9.255-6.664 9.067-11.553v-0.426c-3.246 0.375-6.107 1.789-8.297 3.894l0.005-0.004c-0.501 1.234-0.847 2.664-0.969 4.158l-0.003 0.052z"></path>
</symbol>
<symbol id="icon-partner-05" viewBox="0 0 62 32">
<path fill="#afb1b8" style="fill: var(--color3, #afb1b8)" d="M31.124 14.854c-0.251-0.36-0.402-0.806-0.402-1.287 0-0.051 0.002-0.101 0.005-0.15l-0 0.007v-2.075c0-0.636 0.132-1.119 0.395-1.45s0.715-0.495 1.356-0.494c0.602 0 1.029 0.141 1.282 0.422 0.276 0.359 0.41 0.798 0.379 1.241v0.488h-1.077v-0.494c0-0.019 0.001-0.041 0.001-0.064 0-0.148-0.012-0.293-0.034-0.435l0.002 0.016c-0.018-0.115-0.073-0.214-0.154-0.287l-0-0c-0.096-0.071-0.217-0.114-0.347-0.114-0.015 0-0.030 0.001-0.045 0.002l0.002-0c-0.013-0.001-0.029-0.002-0.044-0.002-0.138 0-0.265 0.045-0.367 0.121l0.002-0.001c-0.090 0.081-0.154 0.19-0.177 0.313l-0.001 0.004c-0.027 0.14-0.042 0.302-0.042 0.467 0 0.016 0 0.032 0 0.048l-0-0.002v2.518c-0.017 0.243 0.031 0.486 0.138 0.707 0.054 0.075 0.128 0.134 0.215 0.171s0.183 0.051 0.278 0.040c0.014 0.001 0.029 0.002 0.045 0.002 0.127 0 0.244-0.044 0.337-0.117l-0.001 0.001c0.084-0.079 0.143-0.184 0.161-0.303l0-0.003c0.025-0.167 0.036-0.336 0.033-0.505v-0.511h1.077v0.466c0.030 0.462-0.101 0.92-0.372 1.304-0.247 0.308-0.669 0.462-1.289 0.462s-1.088-0.165-1.353-0.507zM35.607 14.876c-0.272-0.323-0.408-0.794-0.408-1.416v-2.182c0-0.616 0.136-1.083 0.408-1.399s0.727-0.474 1.364-0.473c0.633 0 1.086 0.158 1.358 0.473 0.272 0.317 0.41 0.783 0.41 1.399v2.182c0 0.616-0.138 1.089-0.415 1.414s-0.727 0.488-1.353 0.488-1.090-0.165-1.364-0.485zM37.474 14.352c0.097-0.202 0.142-0.424 0.129-0.646v-2.672c0.001-0.022 0.002-0.048 0.002-0.074 0-0.204-0.048-0.396-0.132-0.567l0.003 0.007c-0.055-0.076-0.131-0.137-0.22-0.174s-0.187-0.050-0.284-0.037c-0.097-0.013-0.195 0-0.285 0.037s-0.166 0.097-0.221 0.174c-0.083 0.163-0.131 0.355-0.131 0.559 0 0.026 0.001 0.052 0.002 0.078l-0-0.004v2.685c-0.014 0.222 0.031 0.444 0.129 0.646 0.063 0.068 0.14 0.123 0.227 0.16 0.082 0.036 0.177 0.056 0.277 0.056s0.195-0.021 0.282-0.058l-0.005 0.002c0.089-0.039 0.164-0.093 0.227-0.16l0-0v-0.013zM40.035 9.468h1.159l0.872 4.027 0.892-4.027h1.128l0.114 5.812h-0.834l-0.089-4.040-0.861 4.040h-0.669l-0.892-4.054-0.082 4.054h-0.843l0.105-5.812zM45.5 9.468h1.806c1.040 0 1.561 0.55 1.561 1.65 0 1.054-0.548 1.58-1.643 1.579h-0.615v2.583h-1.115l0.007-5.812zM47.042 11.952c0.11 0.013 0.222 0.004 0.328-0.028s0.203-0.085 0.285-0.156c0.128-0.196 0.184-0.427 0.16-0.656 0.001-0.020 0.001-0.043 0.001-0.066 0-0.164-0.020-0.323-0.057-0.476l0.003 0.014c-0.016-0.058-0.044-0.112-0.082-0.159s-0.086-0.087-0.141-0.117c-0.129-0.060-0.281-0.095-0.44-0.095-0.020 0-0.040 0.001-0.060 0.002l0.003-0h-0.432v1.737h0.432zM50.474 9.468h1.197l1.228 5.812h-1.039l-0.243-1.34h-1.068l-0.25 1.34h-1.055l1.228-5.812zM51.497 13.267l-0.417-2.44-0.417 2.44h0.834zM53.892 9.468h0.78l1.494 3.316v-3.316h0.925v5.812h-0.742l-1.503-3.461v3.461h-0.957l0.002-5.812zM59.258 13.064l-1.242-3.588h1.046l0.758 2.305 0.711-2.305h1.023l-1.226 3.588v2.216h-1.070v-2.216zM32.845 17.822v0.304h-0.91v2.362h-0.381v-2.362h-0.914v-0.304h2.205zM35.697 20.488h-0.294c-0.002 0-0.005 0-0.008 0-0.028 0-0.054-0.009-0.075-0.025l0 0c-0.022-0.015-0.038-0.036-0.049-0.060l-0-0.001-0.263-0.633h-1.262l-0.263 0.633c-0.008 0.028-0.022 0.052-0.040 0.072l0-0c-0.020 0.016-0.046 0.025-0.074 0.025-0.003 0-0.006-0-0.009-0l0 0h-0.294l1.115-2.666h0.388l1.128 2.655zM33.85 19.498h1.052l-0.446-1.085c-0.028-0.066-0.056-0.15-0.079-0.235l-0.004-0.016-0.042 0.141-0.040 0.112-0.441 1.083zM37.618 20.226c0.032 0.003 0.070 0.005 0.107 0.005 0.1 0 0.196-0.014 0.288-0.039l-0.008 0.002c0.055-0.013 0.108-0.029 0.16-0.049 0.049-0.019 0.098-0.042 0.149-0.065v-0.599h-0.446c-0.011 0.001-0.022-0.001-0.032-0.005-0.020-0.007-0.035-0.021-0.045-0.039l-0-0c-0.003-0.006-0.005-0.014-0.005-0.022 0-0.002 0-0.003 0-0.005l-0 0v-0.205h0.865v1.022c-0.135 0.094-0.291 0.168-0.459 0.215l-0.011 0.003c-0.079 0.023-0.173 0.042-0.27 0.054l-0.009 0.001c-0.097 0.011-0.21 0.017-0.325 0.017h-0c-0.004 0-0.010 0-0.015 0-0.197 0-0.385-0.036-0.558-0.103l0.011 0.004c-0.173-0.066-0.321-0.161-0.447-0.28l0.001 0.001c-0.12-0.117-0.217-0.258-0.285-0.414l-0.003-0.008c-0.065-0.16-0.103-0.345-0.103-0.539 0-0.005 0-0.010 0-0.015v0.001c-0.002-0.19 0.032-0.379 0.1-0.557 0.064-0.158 0.162-0.302 0.288-0.422 0.127-0.12 0.279-0.214 0.446-0.277 0.191-0.068 0.394-0.102 0.597-0.099 0.104 0 0.207 0.008 0.31 0.023 0.183 0.030 0.347 0.091 0.495 0.178l-0.007-0.004c0.068 0.042 0.133 0.088 0.194 0.139l-0.107 0.165c-0.017 0.031-0.049 0.051-0.086 0.051-0 0-0.001 0-0.001 0h0c-0.026-0.001-0.049-0.008-0.070-0.021l0.001 0c-0.045-0.023-0.080-0.044-0.115-0.067l0.006 0.004c-0.042-0.026-0.091-0.050-0.142-0.070l-0.007-0.002c-0.057-0.023-0.126-0.043-0.197-0.058l-0.008-0.001c-0.081-0.015-0.174-0.023-0.268-0.023-0.005 0-0.010 0-0.015 0h0.001c-0.005-0-0.011-0-0.017-0-0.148 0-0.29 0.027-0.421 0.077l0.008-0.003c-0.128 0.049-0.237 0.121-0.328 0.211l0-0c-0.089 0.092-0.159 0.202-0.205 0.325l-0.002 0.006c-0.1 0.289-0.1 0.6 0 0.889 0.1 0.252 0.296 0.447 0.541 0.545l0.007 0.002c0.142 0.046 0.292 0.064 0.441 0.053zM41.172 20.184h1.217v0.304h-1.59v-2.666h0.381l-0.009 2.362zM43.656 20.488h-0.381v-2.666h0.381v2.666zM45.074 17.834c0.023 0.012 0.042 0.029 0.058 0.049l0 0 1.63 2.009c-0.001-0.014-0.002-0.031-0.002-0.047s0.001-0.033 0.002-0.050l-0 0.002v-1.987h0.332v2.676h-0.192c-0.004 0-0.008 0-0.012 0-0.026 0-0.050-0.006-0.072-0.016l0.001 0c-0.024-0.013-0.044-0.030-0.060-0.051l-0-0-1.628-2.007v2.073h-0.319v-2.666h0.198c0.022 0 0.043 0.004 0.062 0.013zM49.901 17.822v0.293h-1.351v0.88h1.095v0.283h-1.095v0.91h1.351v0.293h-1.743v-2.659h1.743zM9.95 1.359l16.929 4.551v15.946l-16.929-4.548v-15.948zM8.864 0v18.082l19.098 5.135v-18.080l-19.098-5.137z"></path>
<path fill="#afb1b8" style="fill: var(--color3, #afb1b8)" d="M19.1 31.611l-19.1-5.139v-18.080l19.1 5.137v18.082z"></path>
<path fill="#afb1b8" style="fill: var(--color3, #afb1b8)" d="M9.181 1.155l16.708 4.493-7.105 6.729-16.71-4.496 7.108-6.726zM8.864 0l-8.864 8.392 19.1 5.137 8.862-8.392-19.098-5.137zM20.175 30.593l7.788-7.374-7.788-2.096v9.47z"></path>
</symbol>
<symbol id="icon-smartphone" viewBox="0 0 20 32">
<path fill="#757575" style="fill: var(--color4, #757575)" d="M17 0h-14c-1.654 0-3 1.346-3 3v26c0 1.654 1.346 3 3 3h14c1.654 0 3-1.346 3-3v-26c0-1.654-1.346-3-3-3zM3 2h14c0.552 0 1 0.448 1 1v0 21h-16v-21c0-0.552 0.448-1 1-1v0zM17 30h-14c-0.552 0-1-0.448-1-1v0-3h16v3c0 0.552-0.448 1-1 1v0z"></path>
</symbol>
<symbol id="icon-twitter" viewBox="0 0 36 32">
<path fill="#afb1b8" style="fill: var(--color3, #afb1b8)" d="M35.556 4.976c-1.322 0.58-2.731 0.964-4.2 1.151 1.511-0.907 2.647-2.309 3.192-3.978l0.014-0.051c-1.33 0.803-2.879 1.415-4.529 1.748l-0.093 0.016c-1.335-1.421-3.226-2.306-5.324-2.307h-0c-4.035 0-7.284 3.276-7.284 7.291 0 0.578 0.049 1.133 0.169 1.662-6.060-0.296-11.422-3.2-15.024-7.624-0.626 1.056-0.996 2.326-0.998 3.683v0.001c0.003 2.514 1.276 4.731 3.212 6.042l0.026 0.016c-1.213-0.033-2.343-0.362-3.329-0.917l0.036 0.019v0.080c0 3.542 2.527 6.484 5.84 7.162-0.593 0.162-1.24 0.24-1.911 0.24-0.467 0-0.938-0.026-1.38-0.124 0.944 2.887 3.624 5.009 6.811 5.078-2.461 1.938-5.605 3.109-9.023 3.109-0.005 0-0.011 0-0.016 0h0.001c-0.030 0-0.065 0-0.1 0-0.58 0-1.151-0.036-1.711-0.107l0.067 0.007c3.229 2.082 7.056 3.271 11.182 3.271 13.413 0 20.747-11.111 20.747-20.742 0-0.322-0.011-0.633-0.027-0.942 1.447-1.027 2.662-2.309 3.653-3.784z"></path>
</symbol>
</defs>
</svg>
