<svg xmlns="http://www.w3.org/2000/svg" width="41" height="32"><path d="M2.073 31.933h33.168a2.073 2.073 0 0 0 2.073-2.073v-2.764a2.073 2.073 0 0 0-2.073-2.073h-.691V7.791l3.925-3.718A2.086 2.086 0 0 0 40.887.746a2.086 2.086 0 0 0-3.38 2.339L34.55 5.888V4.294a2.073 2.073 0 0 0-2.073-2.073H4.837a2.073 2.073 0 0 0-2.073 2.073v20.73h-.691A2.073 2.073 0 0 0 0 27.097v2.764c0 1.145.928 2.073 2.073 2.073zM39.387 1.529a.69.69 0 1 1 0 1.381.69.69 0 0 1 0-1.381zM4.146 4.293a.69.69 0 0 1 .691-.691h27.64a.69.69 0 0 1 .691.691v2.902l-1.382 1.313V5.675a.69.69 0 0 0-.691-.691H6.219a.69.69 0 0 0-.691.691V22.95a.69.69 0 0 0 .691.691h24.876a.69.69 0 0 0 .691-.691V10.409L33.168 9.1v15.923H4.146V4.293zm6.219 8.983a2.071 2.071 0 0 0-1.064 3.855 2.072 2.072 0 0 0 2.499-.293l2.402 1.205a.69.69 0 0 0 .825-.159l5.106-5.744 5.019 3.761a.69.69 0 0 0 .889-.051l4.362-4.132v10.54H6.909V6.365h23.494v3.449l-4.889 4.63-5.061-3.794a.692.692 0 0 0-.931.093l-5.176 5.824-1.935-.968c.014-.083.023-.167.026-.251a2.073 2.073 0 0 0-2.073-2.073zm.691 2.073a.69.69 0 1 1-1.381 0 .69.69 0 0 1 1.381 0zm4.146 11.056h6.91v.691a.69.69 0 0 1-.691.691h-5.528a.69.69 0 0 1-.691-.691v-.691zm-13.82.691a.69.69 0 0 1 .691-.691H13.82v.691c0 1.145.928 2.073 2.073 2.073h5.528a2.073 2.073 0 0 0 2.073-2.073v-.691h11.747a.69.69 0 0 1 .691.691v2.764a.69.69 0 0 1-.691.691H2.073a.69.69 0 0 1-.691-.691v-2.764z"/></svg>