<svg xmlns="http://www.w3.org/2000/svg" width="62" height="32"><path fill="#afb1b8" d="M31.124 14.854a2.264 2.264 0 0 1-.397-1.431v-2.075c0-.636.132-1.119.395-1.45s.715-.495 1.356-.494c.602 0 1.029.141 1.282.422.276.359.41.798.379 1.241v.488h-1.077v-.494a2.787 2.787 0 0 0-.031-.483.482.482 0 0 0-.154-.287.587.587 0 0 0-.39-.112.619.619 0 0 0-.41.118.563.563 0 0 0-.178.317 2.594 2.594 0 0 0-.042.513v2.518c-.017.243.031.486.138.707.054.075.128.134.215.171s.183.051.278.04a.545.545 0 0 0 .381-.114.521.521 0 0 0 .161-.306c.025-.167.036-.336.033-.505v-.511h1.077v.466c.03.462-.101.92-.372 1.304-.247.308-.669.462-1.289.462s-1.088-.165-1.353-.507zM35.607 14.876c-.272-.323-.408-.794-.408-1.416v-2.182c0-.616.136-1.083.408-1.399s.727-.474 1.364-.473c.633 0 1.086.158 1.358.473.272.317.41.783.41 1.399v2.182c0 .616-.138 1.089-.415 1.414s-.727.488-1.353.488-1.09-.165-1.364-.485zm1.867-.524c.097-.202.142-.424.129-.646v-2.672a1.275 1.275 0 0 0-.127-.633c-.055-.076-.131-.137-.22-.174s-.187-.05-.284-.037c-.097-.013-.195 0-.285.037s-.166.097-.221.174a1.255 1.255 0 0 0-.129.633v2.685c-.014.222.031.444.129.646.063.068.14.123.227.16a.708.708 0 0 0 .554 0 .678.678 0 0 0 .227-.16v-.013zM40.035 9.468h1.159l.872 4.027.892-4.027h1.128l.114 5.812h-.834l-.089-4.04-.861 4.04h-.669l-.892-4.054-.082 4.054h-.843l.105-5.812zM45.5 9.468h1.806c1.04 0 1.561.55 1.561 1.65 0 1.054-.548 1.58-1.643 1.579h-.615v2.583h-1.115l.007-5.812zm1.542 2.484c.11.013.222.004.328-.028s.203-.085.285-.156c.128-.196.184-.427.16-.656a1.999 1.999 0 0 0-.053-.528c-.016-.058-.044-.112-.082-.159s-.086-.087-.141-.117a1.072 1.072 0 0 0-.497-.093h-.432v1.737h.432zM50.474 9.468h1.197l1.228 5.812H51.86l-.243-1.34h-1.068l-.25 1.34h-1.055l1.228-5.812zm1.023 3.799l-.417-2.44-.417 2.44h.834zM53.892 9.468h.78l1.494 3.316V9.468h.925v5.812h-.742l-1.503-3.461v3.461h-.957l.002-5.812zM59.258 13.064l-1.242-3.588h1.046l.758 2.305.711-2.305h1.023l-1.226 3.588v2.216h-1.07v-2.216zM32.845 17.822v.304h-.91v2.362h-.381v-2.362h-.914v-.304h2.205zM35.697 20.488h-.294a.124.124 0 0 1-.083-.025.139.139 0 0 1-.049-.061l-.263-.633h-1.262l-.263.633a.177.177 0 0 1-.04.072.122.122 0 0 1-.083.025h-.294l1.115-2.666h.388l1.128 2.655zm-1.847-.99h1.052l-.446-1.085a2.234 2.234 0 0 1-.083-.251l-.042.141-.04.112-.441 1.083zM37.618 20.226a1.071 1.071 0 0 0 .388-.032c.055-.013.108-.029.16-.049.049-.019.098-.042.149-.065v-.599h-.446c-.011.001-.022-.001-.032-.005a.081.081 0 0 1-.045-.039.05.05 0 0 1-.005-.027v-.205h.865v1.022a1.557 1.557 0 0 1-.47.218 1.86 1.86 0 0 1-.279.055 3.216 3.216 0 0 1-.325.017 1.56 1.56 0 0 1-.562-.099 1.34 1.34 0 0 1-.446-.279 1.3 1.3 0 0 1-.288-.422 1.459 1.459 0 0 1-.103-.553c-.002-.19.032-.379.1-.557.064-.158.162-.302.288-.422.127-.12.279-.214.446-.277.191-.068.394-.102.597-.099.104 0 .207.008.31.023a1.412 1.412 0 0 1 .488.174c.068.042.133.088.194.139l-.107.165a.098.098 0 0 1-.087.051.136.136 0 0 1-.069-.021 1.538 1.538 0 0 1-.109-.063.975.975 0 0 0-.149-.072 1.301 1.301 0 0 0-.205-.059 1.574 1.574 0 0 0-.283-.023 1.187 1.187 0 0 0-.43.074.93.93 0 0 0-.328.211.943.943 0 0 0-.207.331c-.1.289-.1.6 0 .889a.964.964 0 0 0 .548.547c.142.046.292.064.441.053zM41.172 20.184h1.217v.304h-1.59v-2.666h.381l-.009 2.362zM43.656 20.488h-.381v-2.666h.381v2.666zM45.074 17.834a.183.183 0 0 1 .058.049l1.63 2.009a.753.753 0 0 1 0-.095V17.81h.332v2.676h-.192a.17.17 0 0 1-.083-.015.196.196 0 0 1-.06-.051l-1.628-2.007v2.073h-.319V17.82h.198c.022 0 .043.004.062.013zM49.901 17.822v.293H48.55v.88h1.095v.283H48.55v.91h1.351v.293h-1.743v-2.659h1.743zM9.95 1.359L26.879 5.91v15.946L9.95 17.308V1.36zM8.864 0v18.082l19.098 5.135V5.137L8.864 0z"/><path fill="#afb1b8" d="M19.1 31.611L0 26.472V8.392l19.1 5.137v18.082z"/><path fill="#afb1b8" d="M9.181 1.155l16.708 4.493-7.105 6.729-16.71-4.496 7.108-6.726zM8.864 0L0 8.392l19.1 5.137 8.862-8.392L8.864 0zM20.175 30.593l7.788-7.374-7.788-2.096v9.47z"/></svg>