<svg xmlns="http://www.w3.org/2000/svg" width="31" height="32"><path fill="#afb1b8" d="M4.722 31.103a.088.088 0 0 1 .059.025l.153.161c-.119.13-.266.234-.431.305a1.532 1.532 0 0 1-.611.109 1.496 1.496 0 0 1-.574-.102 1.25 1.25 0 0 1-.712-.733 1.618 1.618 0 0 1-.098-.571c-.003-.195.033-.39.105-.573.067-.166.168-.317.297-.445.131-.126.287-.224.459-.29.189-.07.389-.104.591-.102.188-.004.375.027.549.093.152.063.291.15.412.257l-.128.171a.122.122 0 0 1-.033.031.084.084 0 0 1-.052.013.123.123 0 0 1-.056-.018l-.069-.046-.096-.058a.978.978 0 0 0-.302-.103 1.238 1.238 0 0 0-.228-.018 1.12 1.12 0 0 0-.425.077.96.96 0 0 0-.333.215.997.997 0 0 0-.216.343c-.054.145-.08.298-.078.452-.002.156.024.312.078.46.047.126.119.242.212.341a.863.863 0 0 0 .318.212c.125.049.259.074.394.073.078.001.156-.004.234-.015a.87.87 0 0 0 .354-.122c.054-.034.104-.072.151-.113a.115.115 0 0 1 .073-.029zM9.144 30.296c.002.194-.033.386-.103.567-.062.165-.161.315-.288.44s-.282.224-.452.289a1.711 1.711 0 0 1-1.164 0 1.281 1.281 0 0 1-.741-.735 1.61 1.61 0 0 1 0-1.136c.065-.166.164-.317.291-.447.128-.121.281-.216.45-.279.374-.139.79-.139 1.164 0 .17.066.324.165.452.29.126.127.224.276.289.44.071.183.106.376.103.571zm-.402 0a1.313 1.313 0 0 0-.073-.456.898.898 0 0 0-.528-.556 1.23 1.23 0 0 0-.846 0 .901.901 0 0 0-.531.556 1.465 1.465 0 0 0 0 .912.888.888 0 0 0 .531.554c.273.097.573.097.846 0a.884.884 0 0 0 .528-.554c.051-.147.076-.301.073-.456zM12.161 30.774l.04.102a3.46 3.46 0 0 1 .044-.102.933.933 0 0 1 .05-.1l.978-1.694c.019-.029.036-.047.056-.053a.217.217 0 0 1 .08-.009h.289v2.755h-.343v-2.026-.086a.753.753 0 0 1 0-.095l-.984 1.718c-.012.026-.033.047-.058.063s-.054.023-.084.023h-.056a.154.154 0 0 1-.141-.086l-1.013-1.729V31.668h-.331v-2.75h.289a.24.24 0 0 1 .08.009c.024.011.043.03.054.053l.999 1.696c.02.031.036.064.05.098zM15.842 30.638v1.032h-.383v-2.752h.854a1.67 1.67 0 0 1 .477.06.912.912 0 0 1 .337.171.699.699 0 0 1 .191.27.905.905 0 0 1 .065.352.84.84 0 0 1-.071.352.744.744 0 0 1-.207.275.936.936 0 0 1-.339.182 1.498 1.498 0 0 1-.461.064l-.463-.007zm0-.296h.463a.992.992 0 0 0 .297-.042.617.617 0 0 0 .214-.119.477.477 0 0 0 .13-.182.579.579 0 0 0 .046-.232.522.522 0 0 0-.172-.412.766.766 0 0 0-.515-.148h-.463v1.134zM20.987 31.673h-.302a.133.133 0 0 1-.084-.026.164.164 0 0 1-.05-.064l-.26-.666h-1.307l-.27.666a.145.145 0 0 1-.048.062.132.132 0 0 1-.086.027h-.302l1.148-2.756h.398l1.164 2.756zm-1.895-1.023h1.08l-.456-1.122a1.828 1.828 0 0 1-.086-.259l-.044.144c-.013.044-.029.084-.042.117l-.452 1.12zM22.641 28.931a.16.16 0 0 1 .057.049l1.675 2.077v-.097V28.918h.343v2.756h-.191a.173.173 0 0 1-.078-.016.2.2 0 0 1-.061-.051l-1.673-2.075a.753.753 0 0 1 0 .095v2.048h-.343v-2.756h.203a.163.163 0 0 1 .069.013zM27.537 30.577v1.094h-.383v-1.094l-1.059-1.66h.343a.126.126 0 0 1 .082.024.256.256 0 0 1 .052.062l.662 1.071a1.256 1.256 0 0 1 .117.245l.05-.119c.019-.043.04-.085.065-.126l.653-1.078a.274.274 0 0 1 .05-.058.116.116 0 0 1 .082-.027h.346l-1.06 1.667zM11.971 24.293c.167.02.335.036.505.051 2.583-1.101 4.768-2.902 6.282-5.18s2.29-4.929 2.231-7.624l-2.846-2.712c.579 2.869.308 5.836-.782 8.567s-2.956 5.12-5.389 6.898z"/><path fill="#afb1b8" d="M10.955 24.167l.077.015c2.6-1.772 4.583-4.247 5.691-7.104s1.292-5.965.526-8.922l-4.054-3.862c1.64 3.175 2.3 6.728 1.903 10.246s-1.833 6.857-4.143 9.628zM24.704 14.725c-.689 2.961-2.362 5.632-4.77 7.616a15.094 15.094 0 0 1-2.266 1.55c1.961-.549 3.764-1.52 5.269-2.838s2.672-2.947 3.412-4.763l-1.644-1.565z"/><path fill="#afb1b8" d="M24.059 14.289l-2.341-2.23c-.045 2.543-.803 5.028-2.197 7.197s-3.372 3.943-5.729 5.137h.011a14 14 0 0 0 1.572-.089c2.203-.857 4.148-2.219 5.664-3.967s2.553-3.825 3.021-6.047zM11.294 2.664L8.501 0C6.004.919 3.857 2.535 2.34 4.636S.008 9.225 0 11.775c.009 2.818 1.005 5.552 2.829 7.77s4.372 3.793 7.242 4.476c2.561-2.973 4.061-6.647 4.281-10.488s-.851-7.648-3.058-10.869zM30.512 13.878c-.01-3.343-1.409-6.546-3.89-8.91s-5.843-3.696-9.352-3.706a13.655 13.655 0 0 0-4.741.841l17.099 16.291c.585-1.44.885-2.971.884-4.515z"/></svg>